<?xml version="1.0" encoding="UTF-8" standalone="no"?><!DOCTYPE svg PUBLIC "-//W3C//DTD SVG 1.1//EN" "http://www.w3.org/Graphics/SVG/1.1/DTD/svg11.dtd"><svg width="100%" height="100%" viewBox="0 0 852 575" version="1.1" xmlns="http://www.w3.org/2000/svg" xmlns:xlink="http://www.w3.org/1999/xlink" xml:space="preserve" xmlns:serif="http://www.serif.com/" style="fill-rule:evenodd;clip-rule:evenodd;stroke-linejoin:round;stroke-miterlimit:2;"><g id="V1-LOGO"><path d="M561.038,334.667c0.254,-1.352 0.407,-2.704 0.46,-4.056c16.864,-12.137 34.695,-23.905 52.508,-33.942c-0.846,0.254 -1.71,0.503 -2.592,0.745c-15.13,4.15 -35.508,6.388 -62.118,2.942c20.983,1.861 37.955,0.374 51.478,-2.669c11.665,-2.625 20.713,-6.41 27.501,-10.16c17.725,-14.691 23.151,-36.439 13.965,-53.279c-2.804,-0.001 -5.958,-0.079 -9.44,-0.279c-0.976,-0.056 -1.976,-0.121 -3,-0.196c0.438,1.094 0.785,2.203 1.038,3.33c0.944,4.209 0.627,8.566 -1.19,13.161c1.01,-4.589 0.714,-8.732 -0.81,-12.541c-0.589,-1.472 -1.37,-2.875 -2.334,-4.22c-5.37,-0.486 -11.342,-1.251 -17.894,-2.432c5.675,0.104 15.617,-0.299 15.617,-0.299l3.97,-0.271c1.562,-0.123 3.067,-0.261 4.515,-0.41c3.027,-0.313 5.779,-0.677 8.243,-1.06c18.469,-4.545 33.738,-10.92 23.124,-23.301c-1.156,0.526 -2.428,1.017 -3.828,1.462c-8.943,2.84 -23.417,4.004 -47.093,-0.42c18.27,1.25 30.698,-0.062 39.239,-2.499c3.76,-1.073 6.645,-2.36 8.86,-3.704c-0.708,-7.737 12.879,-14.765 3.916,-17.816c-17.444,-5.938 -10.1,-12.383 -7.47,-19.958c4.218,-12.146 -9.402,-11.783 -11.791,-16.826c-3.265,0.589 -8.141,2.029 -14.624,5.428c-7.347,3.853 -16.484,9.998 -27.495,19.92c9.758,-11.541 18.167,-18.981 25.059,-23.886c9.075,-6.458 15.735,-8.552 19.474,-9.212c11.74,-19.841 -1.005,-26.252 -13.208,-33.158c-4.205,2.968 -10.63,7.917 -19.283,15.723c-9.129,8.238 -20.633,19.536 -34.581,34.955c12.499,-16.755 22.946,-29.15 31.304,-38.26c6.793,-7.405 12.226,-12.642 16.244,-16.227c-5.079,-3.405 -9.135,-7.418 -9.848,-13.332c-0.691,-5.723 -2.834,-9.366 -5.652,-11.81c-1.149,3.029 -3.956,9.148 -10.224,17.622c-4.872,6.586 -11.805,14.633 -21.824,23.864c8.452,-10.422 14.08,-19.242 17.891,-26.354c6.481,-12.094 7.246,-18.729 7.246,-18.729c0.011,-0.055 0.022,-0.109 0.035,-0.163c-7.5,-2.601 -15.545,-2.457 -15.671,-9.168c-0.388,-20.774 -17.115,-19.525 -30.421,1.543c-1.533,6.758 -4.459,16.875 -9.991,29.649c-4.744,10.953 -11.399,23.887 -20.784,38.363c7.669,-7.371 14.803,-15.047 21.535,-22.953c-5.811,7.65 -12.686,16.309 -17.573,27.888l6.05,-6.271c-1.518,2.538 -2.285,5.577 -2.282,9.13c0.856,0.192 4.284,-5.202 4.284,-5.202c-0,-0 -1.302,3.43 -1.42,5.686c2.45,-0.218 6.588,-5.889 6.588,-5.889c0,-0 -3.684,6.923 -5.256,14.041c2.451,1.424 5.031,1.563 7.714,0.677c-2.752,1.624 -4.334,4.807 -5.007,9.203c2.978,-0.161 5.214,-1.509 7.037,-3.519l-2.165,4.196c7.547,-3.99 21.278,-24.097 27.203,-28.782c-5.379,4.581 -18.344,24.734 -23.955,30.947c1.616,1.305 3.523,2.276 8.391,-0.135l-0.406,4.466c1.808,2.528 4.261,2.909 6.767,3.113c-3.34,4.104 -4.577,9.085 -5.143,14.346c2.655,0.246 5.311,-0.953 7.967,-2.986c-1.518,1.267 -2.8,2.681 -2.824,4.88c14.479,-2.43 24.475,-11.81 32.616,-17.595c-7.942,6.397 -19.857,14.779 -23.142,25.445c1.094,2.791 2.515,4.111 4.33,3.654c-2.222,0.843 -3.407,2.004 -3.616,3.467c0.24,1.01 0.484,2.029 0.73,3.04l3.157,5.809l4.872,-1.353l-1.571,2.454c1.423,-0.212 2.791,-0.136 4.104,0.191c1.892,0.471 3.638,1.4 5.206,2.711c0.677,0.567 1.316,1.199 1.919,1.881c7.471,1.923 14.84,2.822 22.102,2.642c-6.329,0.875 -13.124,1.283 -17.414,4.196c0.511,2.159 4.818,2.121 7.103,3.492c-1.748,0.255 -3.449,0.441 -5.93,1.796c0.033,0.209 0.062,0.418 0.087,0.626c0.812,1.199 1.698,1.728 2.665,1.529l-2.573,0.909c-0.024,0.505 -0.076,1.001 -0.156,1.487c3.109,3.553 6.868,6.238 11.457,7.816l-10.15,-2.396c4.1,2.706 7.551,6.141 9.934,10.067c1.805,2.972 3.036,6.235 3.509,9.703c1.24,4.013 2.101,7.734 2.101,7.734c1.594,-1.675 2.631,-6.698 2.631,-6.698c-0.16,2.791 -1.754,9.728 -1.754,9.728c4.784,-2.392 7.415,-8.373 7.415,-8.373c-0.159,4.147 -5.033,9.848 -5.033,9.848c7.027,-2.392 10.764,-8.522 10.764,-8.522c-0.037,0.167 -0.08,0.333 -0.127,0.499c1.708,-2.819 2.699,-5.636 3.171,-8.309c-0.432,7.41 -4.424,16.384 -16.111,24.296c-6.043,4.091 -14.131,7.893 -24.865,10.863c-5.23,1.446 -11.107,2.591 -17.649,3.589c-4.891,0.607 -9.377,1.066 -13.512,1.261c-8.056,0.38 -14.758,0.027 -20.449,-0.675c-11.305,-1.395 -18.586,-4.231 -24.617,-6.633c-8,-3.186 -13.664,-5.602 -23.982,-2.702c1.735,-0.694 3.351,-1.219 4.88,-1.6c-11.096,1.222 -26.748,4.829 -35.938,7.094c7.025,-0.905 14.731,-1.577 22.725,-1.719c-9.955,1.324 -19.358,3.43 -27.496,5.639c-15.656,4.25 -26.363,8.868 -26.363,8.868c-0.528,0.191 -1.074,0.237 -1.593,0.156c-0.114,0.362 -0.229,0.724 -0.347,1.086c-0.273,0.837 -0.559,1.673 -0.858,2.509c-1.503,-0.986 -3.128,-1.778 -4.835,-2.354c0.187,-0.587 0.367,-1.173 0.541,-1.759c3.603,-12.132 4.364,-24.191 3.528,-36.491c-0.616,-9.061 -2.099,-18.248 -4.03,-27.679c-1.835,-8.958 -4.058,-18.131 -6.318,-27.604c-4.183,-17.535 -8.456,-36.079 -10.761,-56.086c-1.214,-11.16 -1.918,-20.387 -2.196,-28.098c-0.078,-0.406 -0.089,-0.81 -0.041,-1.201c-0.216,-6.966 -0.074,-12.662 0.358,-17.416c1.058,-11.651 3.809,-17.635 7.206,-22.73c0.126,-0.207 0.255,-0.412 0.386,-0.614c0.379,-0.585 0.817,-1.186 1.302,-1.798c0.815,-1.123 1.654,-2.24 2.507,-3.408c-0.436,0.668 -0.869,1.319 -1.296,1.965c3.449,-3.91 8.356,-8.007 11.66,-10.609c-3.245,1.858 -6.053,4.037 -6.053,4.037c0,0 2.731,-3.765 5.858,-6.774c0.864,-0.832 1.764,-1.561 2.65,-2.154c-0.349,-1.975 -0.605,-3.852 -0.789,-5.619c-0.105,0.023 -0.211,0.047 -0.316,0.072c-4.802,1.124 -13.562,8.193 -17.59,11.851c-0.542,0.493 -1.134,1.088 -1.77,1.802c-0.115,0.283 -0.295,0.545 -0.537,0.763c0,0 -0.412,0.367 -1.082,1.199c-0.356,0.461 -0.722,0.956 -1.098,1.486c-2.979,4.368 -8.101,14.6 -9.415,34.522c-0.971,14.713 0.134,34.547 5.606,60.989c-6.588,-26.366 -8.489,-46.268 -8.117,-61.104c0.178,-7.084 0.877,-13.041 1.847,-18.013c-8.661,11.638 -25.252,31.205 -56.425,76.918c-51.642,75.729 -100.399,139.894 -136.505,182.473c-4.398,-1.659 -8.564,-2.243 -12.439,-2.068l-0.281,-0.098c-0.499,-0.215 -1.024,-0.425 -1.549,-0.622c-1.996,-0.749 -3.995,-1.228 -5.994,-1.463c-0.582,-0.103 -1.236,-0.191 -1.947,-0.253l-0.135,-0.014l-0.007,-0.001l-0.486,-0.192l-0.544,-0.184l-0.006,-0.002l-0.02,-0.006l-0.411,-0.14l-0.594,-0.168l-0.134,-0.041l-0.084,-0.021l-0.19,-0.054l-0.379,-0.087l-0.443,-0.111l-0.175,-0.032l-0.024,-0.006l-0.149,-0.026l-0.686,-0.128l-0.082,-0.009c-1.087,-0.176 -2.201,-0.265 -3.336,-0.265l-0.122,0.003c-2.707,-0.624 -5.568,-0.839 -8.428,-0.635c-1.311,0.094 -3.186,0.307 -5.62,0.681l-0.514,0.091c-0.579,-0.062 -1.169,-0.102 -1.769,-0.124c-4.128,-0.264 -7.551,0.148 -10.194,0.809l-2.555,0.639c-3.946,0.254 -7.365,1.014 -10.301,2.097c-2.519,0.495 -5.099,1.501 -7.714,3.062c-1.285,0.517 -3.117,1.388 -5.395,2.807c-0.799,0.481 -1.643,1.016 -2.446,1.551c-0.824,0.55 -1.604,1.132 -2.339,1.743c-0.925,0.552 -1.868,1.176 -2.814,1.865c0.297,-2.325 0.215,-4.707 -0.189,-7.13c-0.09,-0.539 -0.177,-1.168 -0.267,-1.888c-0.036,-0.284 -0.077,-0.568 -0.124,-0.851c-0.144,-0.863 -0.315,-1.783 -0.521,-2.759l-0.022,-0.655c-0.052,-0.789 -0.039,-1.578 0.04,-2.367c0.307,-3.068 0.353,-5.944 0.17,-8.629c0,-0.003 0.001,-0.006 0.001,-0.009l0.032,-0.274l-0.016,-0.856l-0.023,-0.403c-0.176,-4.148 -1.296,-7.215 -2.385,-9.393c-0.555,-1.109 -1.772,-3.278 -4.266,-6.05c-0.327,-0.363 -0.649,-0.705 -0.966,-1.028c15.588,-178.076 165.269,-317.955 347.362,-317.955c179.674,0 327.792,136.186 346.67,310.878c-0.222,0.046 -0.443,0.094 -0.665,0.145c-0.539,0.101 -1.136,0.24 -1.775,0.437c-2.507,0.359 -5.074,1.172 -7.597,2.662c-1.03,0.404 -2.023,0.898 -2.974,1.469c-0.711,0.426 -1.528,0.924 -2.453,1.493c-1.609,0.99 -3.16,2.096 -4.652,3.32c-0.677,0.511 -1.791,1.393 -3.18,2.551c-0.49,0.408 -0.961,0.839 -1.413,1.29c-1.235,1.235 -2.283,2.494 -3.165,3.762c-2.397,2.401 -4.183,5.359 -5.193,8.622l-0.682,1.139c-1.339,2.142 -2.478,4.496 -3.378,7.08c-0.257,0.588 -0.568,1.349 -0.899,2.227c-2.079,-1.908 -4.553,-3.399 -7.299,-4.351c-2.707,-1.317 -5.975,-2.279 -9.765,-2.353c-1.758,-0.349 -3.71,-0.607 -5.827,-0.739c-2.136,-0.134 -4.001,-0.208 -5.59,-0.218c-1.263,-0.253 -2.549,-0.39 -3.836,-0.403c-5.741,-1.129 -11.722,0.193 -16.467,3.662c-1.417,-1.484 -3.475,-2.472 -6.336,-2.78c-0.909,-0.274 -1.787,-0.481 -2.631,-0.634c-2.57,-0.854 -5.193,-1.238 -7.87,-1.135c-0.702,-0.066 -1.461,-0.099 -2.23,-0.099l0,0.01l-0.38,-0.01c-0.071,-0 -0.142,0.001 -0.212,0.003c-2.005,-0.17 -4.213,-0.136 -6.594,0.181c-2.55,-0.131 -4.931,-0.15 -7.143,-0.074c-1.661,0.058 -3.408,0.086 -5.241,0.086c-3.228,-0 -6.391,0.74 -9.255,2.14c-1.175,0.226 -2.33,0.552 -3.452,0.975l-0.744,0.107c-2.382,0.397 -4.67,1.199 -6.765,2.369l-1.342,0.298c-3.521,0.705 -6.718,2.272 -9.357,4.483c-1.76,1.099 -3.303,2.419 -4.639,3.945c-0.796,0.648 -1.619,1.392 -2.465,2.237c-0.331,0.331 -0.651,0.673 -0.959,1.026c-1.833,2.094 -3.427,4.367 -4.776,6.822c-2.415,1.973 -4.312,4.434 -5.612,7.172l-0.096,0.135l-0.092,0.145c-0.32,-1.043 -0.692,-2.085 -1.109,-3.126c-0.418,-1.045 -0.919,-2.055 -1.498,-3.02c-0.729,-1.215 -1.479,-2.29 -2.231,-3.239c-0.901,-1.501 -1.989,-2.866 -3.224,-4.072c-0.715,-1.215 -1.684,-2.611 -3.011,-4.113c-0.689,-0.923 -1.446,-1.874 -2.229,-2.799c-2.107,-2.491 -4.357,-4.451 -6.655,-5.983c-0.729,-0.486 -1.486,-0.926 -2.269,-1.317c-2.333,-1.167 -4.676,-1.995 -7.017,-2.521c-1.267,-0.509 -2.585,-0.883 -3.931,-1.128c-2.639,-0.48 -5.397,-0.732 -8.277,-0.732c-0.901,-0 -1.764,-0.034 -2.59,-0.109c-0.635,-0.058 -2.253,-0.098 -2.424,-0.119c-2.041,-0.256 -3.828,-0.359 -5.358,-0.359c-1.163,-0 -2.323,0.096 -3.47,0.287c-0.634,0.106 -4.156,0.627 -5.088,0.783c-0.692,0.115 -1.377,0.265 -2.051,0.452l-0.246,0.03l-0.802,0.148c0.082,-0.677 0.166,-1.244 0.257,-1.701c0.09,-0.445 0.164,-0.893 0.219,-1.343c0.118,-0.487 0.211,-0.963 0.282,-1.427Zm-0.282,1.427c-0.183,0.763 -0.424,1.556 -0.731,2.376c0.3,-0.805 0.547,-1.628 0.742,-2.466l-0.011,0.09Zm0.011,-0.09c0.122,-0.896 0.18,-1.8 0.18,-2.706c0,-0.776 -0.035,-1.515 -0.1,-2.218l0.348,-0.25c0.091,1.162 0.062,2.444 -0.157,3.837l-0.202,1.057l-0.069,0.28Zm-70.359,-193.033l0.058,-0.342c-0.229,0.402 -0.452,0.808 -0.671,1.22l0.613,-0.878Zm-2.816,38.714c2.79,-2.427 5.297,-5.015 7.558,-7.722c3.708,-4.44 6.845,-9.044 9.701,-13.382c3.472,-5.272 6.52,-10.151 9.994,-13.678c0.03,-0.031 0.061,-0.061 0.094,-0.089c0.367,-0.314 0.656,-0.7 0.855,-1.127c0.199,-0.426 0.299,-0.895 0.304,-1.376c0.003,-0.477 -0.102,-0.942 -0.292,-1.368c-0.188,-0.422 -0.472,-0.8 -0.826,-1.114c-0.006,-0.006 -0.012,-0.012 -0.019,-0.018l-1.128,-1.002c-0.539,0.745 -1.268,1.709 -2.127,2.808c-4.703,6.022 -13.165,16.221 -13.165,16.221c0,-0 4.457,-7.081 8.235,-13.298c1.715,-2.822 3.274,-5.445 4.211,-7.139c0.142,-0.258 0.281,-0.529 0.399,-0.766l-5.905,-5.246c-0.339,-0.295 -0.742,-0.494 -1.164,-0.616c-0.415,-0.121 -0.856,-0.135 -1.294,-0.068c-0.429,0.065 -0.827,0.239 -1.181,0.474c-0.348,0.23 -0.633,0.547 -0.857,0.911l-21.891,35.948c-0.265,0.406 -0.608,0.73 -0.998,0.965c0.322,0.198 0.637,0.401 0.946,0.611l2.414,-1.962l2.675,-3.214l-3.299,6.516c1.452,1.194 2.729,2.529 3.846,3.982l0.345,0.204l8.324,-6.342l-6.755,9c0.356,0.614 0.689,1.244 1,1.887Zm-1.888,-51.98l-4.782,-2.874c-0.37,-0.216 -0.781,-0.337 -1.199,-0.388c-0.41,-0.051 -0.828,-0.001 -1.233,0.116c-0.398,0.115 -0.754,0.326 -1.068,0.583c-0.308,0.253 -0.55,0.579 -0.737,0.939l-17.511,34.256c-0.225,0.404 -0.528,0.739 -0.878,0.996c0.332,0.136 0.678,0.27 1.034,0.406c1.285,0.489 2.7,0.955 4.233,1.452l5.209,-4.798l-1.982,4.162l8.771,-8.72l-7.593,10.809c1.139,0.391 2.324,0.817 3.552,1.292c3.169,-4.006 5.676,-7.572 7.732,-10.902c2.241,-3.628 3.987,-6.893 5.636,-9.913c1.968,-3.605 3.756,-6.875 6.115,-9.929l0.006,-0.009c0.262,-0.344 0.455,-0.73 0.567,-1.138l0.106,-0.63c0.02,-0.291 0,-0.587 -0.056,-0.878c-0.09,-0.463 -0.278,-0.896 -0.543,-1.274c-0.263,-0.376 -0.61,-0.69 -1.012,-0.932c-0.006,-0.004 -0.013,-0.009 -0.02,-0.013l-1.395,-0.838l-0.002,0.005c-0.281,0.56 -0.921,1.628 -1.794,2.956c-2.94,4.475 -8.284,11.998 -8.284,11.998c0,-0 2.425,-5.288 4.454,-9.95c0.915,-2.101 1.73,-4.044 2.206,-5.308c0.112,-0.297 0.208,-0.625 0.262,-0.818c0.024,-0.238 0.096,-0.46 0.206,-0.658Zm47.479,71.137c0.014,-0.013 0.028,-0.025 0.042,-0.038c3.08,-2.378 5.687,-4.442 7.945,-6.36c3.666,-3.114 6.429,-5.67 8.892,-7.956c3.165,-2.937 5.804,-5.424 9.235,-7.878c0.361,-0.295 0.658,-0.653 0.866,-1.059c0.215,-0.416 0.343,-0.877 0.369,-1.355c0.022,-0.478 -0.06,-0.95 -0.231,-1.386c-0.163,-0.416 -0.412,-0.798 -0.731,-1.124c-2.355,1.399 -5.608,3.914 -8.883,6.636c-6.404,5.323 -12.823,11.344 -12.823,11.344c0,0 5.677,-6.767 11.422,-12.838c2.81,-2.968 5.631,-5.743 7.828,-7.523l-5.131,-4.972c-0.315,-0.301 -0.691,-0.519 -1.091,-0.668c-0.394,-0.145 -0.82,-0.192 -1.248,-0.17c-0.421,0.023 -0.822,0.15 -1.192,0.332c-0.362,0.18 -0.677,0.447 -0.945,0.761l-24.013,28.495c0.291,0.113 0.581,0.231 0.871,0.353l7.231,-6.603l-5.158,6.209l4.366,-1.948l-3.561,3.712c1.006,0.538 2,1.133 2.975,1.791l3.459,-1.341l-2.576,1.957c0.705,0.509 1.4,1.051 2.082,1.629Zm64.244,80.831c0.01,-1.061 0.452,-2.114 1.309,-2.872c11.778,-9.94 13.28,-20.265 8.832,-28.335c-5.095,-9.246 -17.14,-15.387 -28.903,-14.776c-2.586,0.174 -4.914,0.294 -7.03,0.355c-2.583,0.479 -5.873,1.539 -9.232,3.82c-3.656,2.484 -7.347,6.3 -10.402,12.231c2.264,-6.551 5.546,-10.99 8.939,-14.085c0.855,-0.78 1.719,-1.474 2.578,-2.089c-0.351,-0.027 -0.695,-0.057 -1.033,-0.091c-4.403,-0.434 -7.761,-1.525 -11.052,-3.699c-3.754,-2.481 -7.469,-6.361 -12.399,-12.526c-0.018,0.694 -0.056,1.399 -0.119,2.112c-0.457,5.197 -2.015,10.709 -6.324,15.346c2.262,-4.059 2.911,-8.203 2.74,-12.166c-0.402,-9.294 -5.812,-16.886 -5.812,-16.886c-0.064,-0.122 -0.121,-0.247 -0.171,-0.373c-4.865,-4.45 -10.558,-6.442 -16.066,-7.126c-9.239,-1.147 -18.025,1.303 -22.023,2.677c-0.044,1.063 -0.111,2.125 -0.2,3.18c8.629,-1.564 14.952,-1.388 19.596,-0.374c10.588,2.312 12.349,8.895 12.349,8.895c-0,0 -2.217,-6.223 -12.581,-7.55c-4.71,-0.604 -11.08,-0.176 -19.703,2.293c-0.304,2.451 -0.707,4.84 -1.173,7.111l0.512,3.299l2.132,-9.44l-0.203,11.876c1.218,-1.726 5.177,-7.004 5.177,-7.004l-2.843,7.512c3.959,-1.219 11.369,-3.959 11.369,-3.959c-1.827,0.913 -11.267,6.699 -11.267,6.699c6.153,-1.745 16.874,-1.579 18.862,-1.531c-4.33,-0.028 -15.614,3.155 -15.614,3.155c5.46,-0.197 10.11,1.524 12.707,2.76c12.529,3.422 23.188,11.48 30.357,21.497c0.752,1.051 1.466,2.123 2.139,3.214c-0.277,-1.122 -0.443,-1.772 -0.443,-1.772c-0,0 8.286,2.521 7.354,2.996c-1.922,0.979 0.321,12.994 2.215,12.994c7.094,-2.833 9.623,-6.122 12.445,-9.383c-3.654,4.248 -5.762,7.323 -3.13,11.989l10.35,-4.628l-9.176,10.308c8.786,-1.887 13.604,-4.908 16.531,-8.47l-7.723,10.481c10.871,-0.756 17.332,-2.613 23.163,-4.629l-19.669,10.145c-0,-0 -2.789,0.701 -6.565,1.519c2.47,-0.254 5.059,-0.556 7.775,-0.939c3.465,-0.391 6.732,-0.867 9.818,-1.395c0.071,-0.38 0.272,-0.739 0.594,-1.004c11.382,-8.827 15.763,-16.807 16.085,-23.47c0.571,-11.801 -11.351,-19.193 -18.752,-19.189c7.731,-0.44 20.359,6.862 20.458,19.224c0.052,6.483 -3.315,14.392 -12.666,23.371c0.54,-0.109 1.073,-0.219 1.601,-0.33c1.477,-0.311 2.906,-0.633 4.287,-0.968Zm-88.257,-89.263c3.347,-2.798 6.291,-5.834 8.919,-9.006c2.909,-3.512 5.473,-7.112 7.817,-10.615c4.245,-6.343 7.833,-12.291 11.951,-16.394c0.031,-0.032 0.063,-0.062 0.096,-0.091c0.37,-0.307 0.67,-0.683 0.875,-1.107c0.205,-0.425 0.321,-0.894 0.332,-1.376c0.011,-0.484 -0.078,-0.959 -0.265,-1.394c-0.187,-0.435 -0.47,-0.827 -0.828,-1.152c-0.006,-0.006 -0.011,-0.011 -0.017,-0.016l-0.154,-0.14c-0.692,0.919 -1.935,2.434 -3.498,4.272c-6.131,7.208 -17.098,19.459 -17.098,19.459c0,0 4.723,-6.55 9.391,-13.166c3.386,-4.8 6.722,-9.609 8.184,-11.944c0.211,-0.336 0.409,-0.699 0.512,-0.891l-6.706,-6.069c-0.362,-0.319 -0.789,-0.543 -1.241,-0.677c-0.447,-0.133 -0.923,-0.159 -1.395,-0.09c-0.034,0.005 -0.068,0.011 -0.101,0.017l-7.546,10.419l-25.491,42.123c0.97,-0.262 2.021,-0.523 3.14,-0.767l6.515,-8.044l-4.44,7.626c1.562,-0.289 3.227,-0.536 4.967,-0.71l7.004,-8.204l-4.32,7.134l5.113,-2.576l-2.848,3.375c0.375,-0.003 0.753,-0.001 1.132,0.004Zm-101.197,-64.394c0.219,2.324 0.48,4.778 0.786,7.37c15.398,-4.585 24.273,-4.353 29.119,-1.811c4.233,2.221 5.578,6.149 5.409,10.421c-0.31,7.773 -5.623,16.584 -5.623,16.584c0,-0 3.641,-6.882 4.449,-13.745c0.561,-4.775 -0.222,-9.573 -4.983,-11.726c-4.733,-2.141 -13.153,-1.661 -27.557,3.594c-0.132,0.044 -0.264,0.071 -0.397,0.082c0.541,4.246 1.194,8.845 1.97,13.832c0.88,5.893 1.942,11.648 3.122,17.28c1.265,2.157 6.198,17.79 6.198,17.79c-0,0 0.951,-10.753 2.759,-16.082c0,0 -1.142,13.418 -0.856,16.273c-0,-0 5.982,-7.042 9.509,-14.56c0,0 -4.085,12.847 -6.083,15.987c-0,0 9.706,-6.851 13.322,-10.943c0,-0 -4.105,6.946 -7.239,9.896l-3.133,2.95c1.332,-0.856 11.038,-7.327 15.511,-8.945l-3.045,4.145c3.982,-3.249 7.817,-5.011 11.354,-5.813c10.568,-2.398 18.271,3.806 18.271,3.806c0,-0 -7.905,-5.375 -17.819,-2.161c-4.21,1.365 -8.753,4.323 -13.217,9.951c18.724,1.876 33.276,14.11 40.477,29.772c1.715,-5.81 3.276,-13.544 3.305,-21.171c-0.007,-0.199 -0.008,-0.399 -0.001,-0.597c-0.018,-2.622 -0.221,-5.224 -0.666,-7.725c-1.201,-6.751 -4.207,-12.771 -10.657,-15.815c-0.048,-0.015 -0.095,-0.03 -0.142,-0.046c-0,-0 -6.24,-3.248 -13.526,-2.743c-4.438,0.307 -9.092,1.833 -13.065,6.052c2.64,-4.81 6.446,-7.535 10.415,-9.185c-0.683,-0.268 -1.328,-0.544 -1.931,-0.837c-3.299,-1.601 -5.635,-3.645 -6.969,-6.764c-3.103,4.63 -7.334,10.247 -13.277,16.786c4.494,-7.806 7.438,-14.268 9.452,-19.463c3.317,-8.555 3.7,-13.106 3.7,-13.106c0.067,-0.319 0.17,-0.62 0.305,-0.901c0.14,-0.604 0.292,-1.225 0.456,-1.864c1.06,-4.135 0.825,-7.351 -0.54,-9.82c-2.141,-3.873 -6.714,-5.769 -11.723,-6.861c-9.663,-2.106 -21.201,-0.837 -25.501,0.161c-0.664,0.154 -1.327,0.127 -1.939,-0.048Zm178.167,103.186c3.647,0.458 7.215,1.441 10.547,2.861c1.019,-0.976 1.689,-2.246 2.045,-3.674c-1.294,-7.294 -4.838,-18.186 -14.394,-16.084c-0.767,0.37 -1.535,0.873 -2.297,1.517c-0.262,0.184 -0.551,0.301 -0.846,0.356c0.144,1.05 -0.008,2.1 -0.389,3.055c-0.486,1.218 -1.383,2.261 -2.578,2.961c-0.02,0.01 -0.039,0.02 -0.059,0.03c-0.61,0.337 -1.236,0.658 -1.872,0.964l2.368,-0.268l-4.058,1.035c-3.086,1.325 -6.349,2.338 -9.41,3.178c-1.641,0.45 -3.225,0.837 -4.696,1.167c0.978,0.093 2.529,0.169 4.985,0.169c6.243,0 15.26,-2.279 15.26,-2.279c-2.874,1.189 -9.216,3.469 -9.216,3.469c10.603,-0.694 16.251,1.189 16.251,1.189c-0.555,0.125 -1.102,0.242 -1.641,0.354Zm-79.419,-67.948l5.963,-8.785l0.846,-2.066c-2.092,2.853 -4.105,6.163 -6.164,9.73c-0.215,0.371 -0.429,0.745 -0.645,1.121Zm38.222,124.282c2.506,-11.016 -0.881,-23.163 -8.049,-33.178c-10.926,-15.267 -30.717,-25.624 -52.529,-19.505c0.225,1.217 0.407,2.443 0.546,3.674c3.09,-1.064 6.306,-1.422 9.707,-1.03c3.155,0.364 6.412,1.32 9.817,2.875c-3.515,-0.934 -6.788,-1.336 -9.869,-1.169c-3.298,0.178 -6.281,1.068 -9.004,2.701c-0.122,0.059 -0.247,0.103 -0.373,0.132c0.303,6.674 -0.679,13.444 -3.128,19.911c-0.534,4.877 -3.342,13.012 -3.342,13.012c2.49,-2.41 5.623,-7.391 5.623,-7.391c-0.562,3.776 -7.069,12.853 -7.069,12.853c2.972,-1.606 11.487,-8.435 11.487,-8.435l-5.55,7.391c6.339,-1.125 16.154,-5.864 16.154,-5.864c-2.089,1.365 -11.914,6.507 -11.914,6.507c6.104,-1.474 14.375,-0.246 18.716,0.605c4.32,0.081 8.275,1.239 12.969,2.593c4.623,1.333 9.962,2.837 17.173,3.689c2.326,-8.837 1.538,-16.14 -0.579,-21.975c-4.37,-12.044 -14.219,-17.883 -14.219,-17.883c-0,-0 10.444,5.271 15.8,17.243c2.668,5.964 4.052,13.549 2.372,22.952c1.159,0.095 2.364,0.173 3.618,0.23c0.539,0.025 1.087,0.046 1.643,0.062Zm-52.529,-41.043c1.089,0.035 1.927,1.533 1.869,3.342c-0.057,1.81 -0.989,3.25 -2.079,3.216c-1.09,-0.035 -1.928,-1.533 -1.87,-3.342c0.058,-1.81 0.99,-3.251 2.08,-3.216Zm27.314,3.738c0.938,0.558 0.947,2.273 0.022,3.83c-0.925,1.556 -2.437,2.367 -3.374,1.81c-0.937,-0.557 -0.947,-2.273 -0.022,-3.829c0.925,-1.557 2.437,-2.368 3.374,-1.811Zm12.381,30.2c0.196,1.073 -1.092,2.207 -2.873,2.532c-1.781,0.324 -3.386,-0.283 -3.581,-1.356c-0.196,-1.073 1.092,-2.207 2.873,-2.532c1.781,-0.324 3.386,0.283 3.581,1.356Zm-110.898,-81.895c0.449,1.699 0.898,3.388 1.345,5.068c7.156,-2.495 13.633,-3.171 19.559,-2.221c6.642,1.065 12.553,4.136 17.854,8.95c-5.545,-4.232 -11.517,-6.773 -18.052,-7.255c-5.726,-0.423 -11.852,0.777 -18.488,3.805c0.082,0.309 0.164,0.619 0.247,0.928c3.048,11.477 5.936,22.546 8.026,33.353c1.451,7.508 2.51,14.895 2.967,22.197l1.061,-6.531c2.41,3.552 1.649,22.457 1.649,22.457c3.172,-2.537 5.202,-9.008 5.202,-9.008c0,1.522 -1.015,7.866 -1.015,7.866c4.187,-2.664 6.725,-5.075 6.725,-5.075c-1.65,2.157 -4.187,7.486 -4.187,7.486c5.001,-1.397 10.259,-3.946 13.795,-5.842c3.049,-2.185 5.617,-4.519 7.765,-6.945c11.173,-12.625 10.959,-27.647 7.645,-36.921c3.789,9.329 4.519,24.641 -6.344,38.024c-2.024,2.494 -4.45,4.92 -7.334,7.227c-4.222,5.071 -11.213,9.786 -11.213,9.786c4.066,-0.557 7.325,-1.456 9.703,-2.29c9.196,-5.937 15.332,-13.44 18.822,-21.585c13.928,-32.512 -14.326,-74.697 -55.732,-63.474Zm41.577,63.031c-0.225,1.067 -1.847,1.629 -3.618,1.255c-1.771,-0.375 -3.026,-1.545 -2.801,-2.612c0.226,-1.066 1.847,-1.629 3.618,-1.254c1.772,0.374 3.027,1.544 2.801,2.611Zm2.968,-32.581c0.483,0.978 -0.444,2.422 -2.068,3.223c-1.624,0.801 -3.334,0.657 -3.816,-0.321c-0.482,-0.978 0.445,-2.422 2.069,-3.223c1.623,-0.801 3.333,-0.657 3.815,0.321Zm-16.702,-20.376c0.91,0.601 0.84,2.315 -0.157,3.826c-0.998,1.511 -2.546,2.25 -3.456,1.65c-0.91,-0.601 -0.84,-2.315 0.158,-3.826c0.997,-1.511 2.545,-2.251 3.455,-1.65Zm105.901,15.125c2.38,-0.031 5.722,-0.19 9.385,-0.718c4.115,-0.592 8.597,-1.665 12.567,-3.368c0.637,-0.341 1.138,-0.855 1.425,-1.478c0.303,-0.657 0.406,-1.412 0.228,-2.155l-0.003,-0.009c-0.608,-2.374 -1.442,-5.749 -2.435,-9.354c-0.848,-3.077 -1.799,-6.322 -2.675,-9.296c-1.9,1.025 -3.957,2.078 -5.979,3.079c-5.487,2.717 -10.51,4.982 -10.51,4.982c0,-0 4.534,-3.102 9.443,-6.729c2.079,-1.536 4.191,-3.147 6.066,-4.662c-0.132,-0.451 -0.26,-0.89 -0.383,-1.314c-0.14,-0.471 -0.41,-0.88 -0.741,-1.224c-0.323,-0.336 -0.738,-0.575 -1.193,-0.728c-0.444,-0.151 -0.912,-0.165 -1.362,-0.096c-0.439,0.068 -0.849,0.268 -1.218,0.538l-25.31,18.702c-0.323,0.22 -0.673,0.371 -1.033,0.456c0.639,0.942 1.253,1.845 1.844,2.711c3.27,-2.246 8.362,-5.511 8.362,-5.511l-7.577,6.66c0.91,1.328 1.763,2.567 2.569,3.725c0.634,0.913 1.237,1.773 1.816,2.582c1.494,-0.436 3.192,-1.373 3.192,-1.373l-1.12,2.576c3.655,0.793 12.795,-0.396 12.795,-0.396c-1.83,0.941 -5.291,1.799 -8.153,2.4Zm-65.064,-35.686l0.628,-0.926c-0.225,0.241 -0.452,0.481 -0.681,0.72c0.018,0.069 0.035,0.137 0.053,0.206Zm39.295,-7.559l9.782,-21.547c-3.515,4.109 -6.643,9.652 -10.107,15.68c-2.158,3.755 -4.421,7.687 -7.038,11.574c-1.587,2.356 -3.293,4.685 -5.168,6.947c0.234,0.043 0.467,0.089 0.7,0.137c0.109,-0.529 0.357,-1.036 0.746,-1.465l11.085,-11.326Zm-87.66,-58.93c0.713,0.242 1.41,0.505 2.086,0.79c4.494,1.894 8.142,4.732 10.314,8.66c2.159,3.905 2.941,8.962 1.265,15.5c-0.382,1.49 -0.699,2.852 -0.95,4.099c3.043,-5.454 3.928,-12.71 3.928,-12.71c1.784,4.955 -2.081,12.981 -2.081,12.981c1.784,-1.09 7.135,-9.017 7.135,-9.017l-1.736,4.629l10.243,-16.914c-0.07,-0.082 -0.131,-0.173 -0.184,-0.271c-0,0 -2.52,-5.622 -7.501,-9.654c-2.041,-1.653 -4.495,-3.051 -7.297,-3.627c-1.038,-0.213 -2.129,-0.292 -3.254,-0.24c-1.522,0.07 -3.11,0.403 -4.753,1.039c-2.327,0.901 -4.724,2.441 -7.215,4.735Zm-17.053,-43.307c-0.303,5.312 -0.04,10.47 0.771,15.478c-1.576,-4.097 -2.836,-8.246 -3.784,-12.446c-1.708,3.551 -1.64,7.157 -1.555,8.387l-0.716,-7.799c0,0 -7.428,6.335 -5.746,19.202c1.681,12.867 8.325,15.502 8.325,15.502c-2.052,-4.217 -3.699,-8.535 -3.835,-13.231c3.385,7.017 7.794,11.65 15.484,13.883c-2.776,-1.887 -4.687,-4.063 -6.286,-6.342c2.406,2.055 6.199,3.682 10.307,5.213c-1.428,-1.284 -2.65,-2.627 -3.494,-4.079c1.517,1.236 3.327,1.996 5.512,2.145c-1.557,-2.059 -2.831,-4.203 -3.553,-6.512c1.389,2.166 3.434,4.005 6.16,5.503c-1.513,-2.523 -0.821,-9.503 -0.821,-9.503c0.741,4.813 4.948,11.31 5.334,11.899c0.534,-0.192 1.06,-0.358 1.579,-0.501c1.872,-0.516 3.635,-0.739 5.314,-0.719c1.231,0.014 2.408,0.158 3.544,0.383c3.035,0.602 5.731,1.932 8.075,3.538c0.819,0.561 1.593,1.156 2.318,1.764c-1.441,-2.534 -10.895,-19.348 -12.2,-26.604c-0.095,-0.258 -0.121,-0.402 -0.067,-0.412c0.019,0.133 0.041,0.271 0.067,0.412c1.218,3.32 13.907,25.593 18.177,28.009c-0,-0 -1.568,-5.942 -1.383,-9.415c0.729,3.224 4.804,5.898 7.074,8.352l-3.334,-5.452c0,-0 7.312,8.118 9.115,8.172c1.283,0.039 2.495,-3.266 2.495,-3.266c-0.357,2.005 2.164,6.046 5.278,9.594c1.021,-0.43 1.702,-1.371 2.3,-2.436l0.406,3.654c0,-0 12.313,-17.848 14.358,-27.851c-1.415,8.227 -3.27,16.419 -7.226,24.45c2.879,0.237 5.042,-0.639 6.239,-3.019l-2.178,4.64c1.747,-0.954 3.532,-1.843 4.74,-3.741l-1.061,4.1c-0,0 3.487,-3.235 3.67,-4.263l-1.083,7.985c8.085,-6.783 11.088,-15.091 17.796,-22.773c0.294,-0.455 0.504,-0.7 0.61,-0.686c-0.207,0.228 -0.41,0.456 -0.61,0.686c-2.666,4.123 -12.162,25.475 -11.976,26.833c0.223,1.637 8.932,-9.203 8.932,-9.203c-2.261,3.062 -3.659,6.987 -4.737,11.233c1.244,-1.119 2.474,-2.247 3.69,-3.381c6.948,-12.408 12.161,-23.689 16.085,-33.662c3.097,-7.871 5.37,-14.894 7.038,-20.962c-8.858,8.642 -16.504,2.409 -15.163,-17.83c1.786,-26.958 -18.514,0.408 -25.162,-5.035c0.134,1.376 0.247,2.782 0.335,4.217c0.664,10.793 -0.036,23.154 -3.834,35.926c2.358,-12.87 1.77,-25.013 -0.019,-35.479c-2.132,-12.47 -6.003,-22.415 -8.542,-28.01c-6.993,-3.662 -15.57,0.648 -21.391,0.885c-0.613,5.375 -0.827,12.737 0.276,22.092c1.106,9.378 3.481,20.617 8.02,33.818c-7.638,-16.143 -11.434,-29.556 -13.248,-40.144c-1.443,-8.418 -1.611,-15.09 -1.343,-19.936c-7.35,-12.84 -26.56,-10.999 -32.879,9.653c0.319,0.762 0.399,1.631 0.171,2.49c0,0 -4.321,13.332 0.129,32.864c2.139,9.389 6.219,20.096 13.629,31.476c-6.123,-7.44 -10.557,-14.743 -13.778,-21.622l2.55,11.979c-2.354,-1.598 -9.503,-25.649 -9.503,-25.649c-0.601,4.977 -0.734,9.885 0.757,14.548c-1.635,-3.244 -2.521,-6.638 -3.111,-10.091c-0.586,0.083 0.483,7.721 1.109,11.329c0.236,0.696 0.386,1.263 0.404,1.622c0.033,0.648 -0.148,-0.153 -0.404,-1.622c-1.066,-3.152 -3.885,-8.964 -4.151,-10.24Zm-0,0c0.004,-0.083 0.009,-0.165 0.014,-0.248c-0.042,0.017 -0.045,0.103 -0.014,0.248Zm-20.186,260.221c-0.201,-0.214 -0.421,-0.439 -0.659,-0.677c0,-1.044 -0.196,-1.99 -0.587,-2.838c-0.391,-0.848 -0.587,-1.794 -0.587,-2.838c-0,-0.783 0.261,-1.826 0.783,-3.131c0.13,-0.652 0.228,-1.305 0.293,-1.957c0.065,-0.653 0.163,-1.109 0.294,-1.37c0.913,-1.044 1.565,-1.664 1.957,-1.859c0.391,-0.196 0.717,-0.49 0.978,-0.881c0.522,-0.913 0.783,-1.5 0.783,-1.761c0,-0.261 0.065,-0.522 0.196,-0.783c0.391,-0.522 0.946,-1.011 1.663,-1.468c0.718,-0.457 1.403,-0.881 2.055,-1.272c0.653,-0.522 1.501,-0.75 2.545,-0.685c1.043,0.065 2.283,0.032 3.718,-0.098c0.522,1.044 1.37,1.761 2.544,2.153c1.174,0.391 2.088,1.109 2.74,2.153l1.957,0.489c0.261,0.065 0.522,0.228 0.783,0.489c2.218,1.566 3.849,3.653 4.893,6.263l0.195,0.978c0.261,0.261 0.327,1.175 0.196,2.74c-0.13,1.566 -0.326,2.675 -0.587,3.327c-0.13,0.392 -0.326,0.75 -0.587,1.077c-0.261,0.326 -0.522,0.619 -0.783,0.88c-0.261,1.566 -0.652,2.805 -1.174,3.719c-0.522,0.913 -0.913,1.696 -1.174,2.348c-0.653,0.261 -1.272,0.62 -1.86,1.077c-0.587,0.456 -1.206,0.815 -1.859,1.076c-1.566,0.522 -2.87,1.011 -3.914,1.468c-1.044,0.457 -2.088,0.685 -3.131,0.685c-0.522,-0 -0.979,-0.098 -1.37,-0.294c-0.392,-0.195 -0.783,-0.358 -1.175,-0.489c-0.652,-0.13 -1.304,-0.196 -1.957,-0.196c-0.652,0 -1.304,-0.065 -1.957,-0.195c-0.652,-1.175 -1.402,-2.251 -2.25,-3.23c-0.339,-0.39 -0.641,-0.817 -0.907,-1.281c-0.694,0.761 -1.387,1.502 -2.082,2.226c-0.194,-0.205 -0.405,-0.421 -0.632,-0.648c0,-1.044 -0.196,-1.99 -0.587,-2.838c-0.09,-0.195 -0.169,-0.394 -0.238,-0.599c0.495,-0.575 0.989,-1.162 1.484,-1.76Zm-152.06,2.761l-0.021,-0.027c-0.644,-0.836 -1.058,-1.763 -1.341,-2.7c-0.205,-0.68 -0.294,-1.378 -0.292,-2.066c0.003,-0.712 0.103,-1.42 0.325,-2.089c0.493,-1.49 1.371,-2.881 2.76,-3.878c0.75,-0.538 1.579,-1.002 2.58,-1.284c1.719,-0.484 3.686,-0.586 6.08,-0.09c-2.638,0.488 -4.444,1.515 -5.81,2.762c-0.726,0.664 -1.168,1.432 -1.526,2.22c-0.344,0.759 -0.44,1.566 -0.442,2.39c-0.001,0.492 0.006,0.99 0.109,1.493c0.105,0.513 0.215,1.034 0.437,1.546c0.297,0.686 0.636,1.37 1.145,2.029c0.367,0.473 0.773,0.934 1.23,1.377l-0.027,-0l-0.445,0.008c-1.437,-0.712 -3.019,-1.287 -4.762,-1.691Zm67.075,-17.209c-0.337,0.017 -0.67,0.024 -1,0.019c-2.109,-0.032 -3.944,-0.65 -5.571,-1.523c-1.2,-0.644 -2.188,-1.533 -3.032,-2.521c-0.59,-0.689 -1.064,-1.464 -1.431,-2.281c-0.369,-0.823 -0.633,-1.696 -0.749,-2.595c-0.253,-1.975 -0.062,-4.055 0.852,-6.016c0.507,-1.089 1.139,-2.138 2.054,-3.099c1.637,-1.717 3.775,-3.143 6.746,-4.145c-2.594,2.245 -3.936,4.609 -4.674,6.972c-0.387,1.242 -0.417,2.431 -0.356,3.596c0.061,1.136 0.407,2.183 0.859,3.188c0.27,0.6 0.547,1.197 0.933,1.744c0.395,0.559 0.795,1.118 1.322,1.6c0.713,0.653 1.469,1.272 2.415,1.744c0.805,0.402 1.666,0.742 2.595,0.999c-0.366,0.751 -0.688,1.525 -0.963,2.318Zm95.952,-22.268c0.596,-3.024 1.064,-6.031 1.433,-9.013c0.462,-3.739 0.752,-7.421 0.914,-11.043c0.169,-3.77 0.175,-7.458 0.095,-11.052c-0.056,-2.504 -0.164,-4.957 -0.289,-7.356c-0.13,-2.515 -0.28,-4.968 -0.47,-7.349c-0.309,-3.879 -0.712,-7.561 -1.167,-11.006c-0.851,-6.428 -1.883,-12.003 -2.872,-16.413c-1.522,-6.786 -2.849,-10.783 -2.849,-10.783c0,-0 1.802,3.834 3.979,10.472c1.424,4.344 3.027,9.86 4.346,16.285c0.711,3.466 1.329,7.19 1.795,11.125c0.287,2.423 0.517,4.926 0.646,7.496c0.122,2.453 0.152,4.966 0.099,7.526c-0.076,3.67 -0.334,7.431 -0.776,11.258c-0.424,3.661 -1.023,7.371 -1.83,11.114c-0.621,2.883 -1.366,5.774 -2.239,8.669c-0.087,0.007 -0.174,0.014 -0.261,0.022c-0.19,0.017 -0.352,0.061 -0.491,0.052l-0.063,-0.004Zm-242.798,43.93l0.146,-0.011l0.053,0.005l-0.199,0.006Zm616.025,-31.417c-1.509,0.908 -2.998,2.065 -4.447,3.515c0.647,-0.647 1.884,-2.279 4.447,-3.515Zm-421.595,-6.608c3.431,0.013 5.996,-0.887 8.105,-2.184c1.108,-0.682 1.912,-1.558 2.631,-2.477c0.701,-0.896 1.128,-1.912 1.447,-2.967c0.191,-0.63 0.375,-1.262 0.443,-1.928c0.07,-0.681 0.136,-1.365 0.056,-2.074c-0.109,-0.961 -0.272,-1.925 -0.675,-2.902c-0.955,-2.315 -2.544,-4.553 -5.304,-6.534c2.998,0.762 5.247,2.012 7.019,3.605c1.569,1.409 2.546,3.08 3.199,4.808c0.482,1.274 0.642,2.593 0.629,3.893c-0.008,0.906 -0.16,1.802 -0.421,2.659c-0.262,0.862 -0.636,1.695 -1.14,2.448c-1.107,1.655 -2.618,3.098 -4.595,3.975c-1.098,0.488 -2.263,0.864 -3.584,0.987c-2.363,0.219 -4.912,-0.112 -7.81,-1.309Zm-3.767,-90.114c-0,0 -0.247,2.097 -0.226,5.192c0.007,0.983 0.139,1.973 0.203,3.08c0.036,0.61 0.093,1.229 0.116,1.866c0.024,0.644 -0.07,1.277 -0.005,1.947c0.029,0.294 0.008,0.568 0.043,0.869c0.212,1.832 0.579,3.54 1.923,5.487c-1.745,-0.612 -2.939,-1.362 -4.086,-2.37c-0.921,-0.81 -1.496,-1.718 -2.05,-2.704c-0.375,-0.666 -0.593,-1.36 -0.785,-2.075c-0.128,-0.477 -0.2,-0.962 -0.22,-1.446c-0.028,-0.65 0.023,-1.292 0.148,-1.91c0.195,-0.961 0.448,-1.844 0.845,-2.665c0.564,-1.168 1.147,-2.068 1.802,-2.884c1.302,-1.626 2.292,-2.387 2.292,-2.387Zm11.55,-66.151c-0,0 -1.164,1 -2.816,2.866c-0.385,0.434 -0.669,0.896 -1.091,1.387c-0.334,0.388 -0.603,0.827 -0.965,1.236c-0.213,0.24 -0.459,0.454 -0.694,0.69c-0.241,0.24 -0.523,0.409 -0.772,0.66c-0.53,0.535 -1.075,0.939 -1.549,1.632c-0.62,0.908 -1.161,1.642 -1.609,2.882c-0.798,-1.669 -1.024,-2.927 -1.077,-4.416c-0.026,-0.767 0.143,-1.392 0.308,-2.089c0.149,-0.624 0.421,-1.151 0.712,-1.69c0.196,-0.363 0.441,-0.687 0.709,-0.985c0.272,-0.301 0.568,-0.574 0.895,-0.794c0.805,-0.541 1.585,-0.961 2.436,-1.198c0.833,-0.231 1.496,-0.358 2.234,-0.392c2.101,-0.096 3.279,0.211 3.279,0.211Zm-64.225,103.27c-1.877,1.918 -2.763,3.796 -3.162,5.603c-0.212,0.96 -0.131,1.843 0.03,2.693c0.155,0.819 0.54,1.534 1.013,2.209c0.282,0.403 0.576,0.806 0.949,1.159c0.381,0.359 0.771,0.721 1.247,1.012c0.638,0.391 1.309,0.755 2.104,1c1.851,0.57 3.966,0.793 6.522,0.298c-1.978,1.252 -3.832,1.906 -5.641,2.152c-1.597,0.217 -3.045,0.004 -4.364,-0.406c-1.008,-0.313 -1.88,-0.832 -2.651,-1.436c-0.558,-0.438 -1.033,-0.957 -1.427,-1.521c-0.408,-0.584 -0.734,-1.221 -0.937,-1.896c-0.454,-1.502 -0.537,-3.145 0.026,-4.759c0.303,-0.872 0.714,-1.728 1.371,-2.535c1.126,-1.385 2.676,-2.601 4.92,-3.573Zm-218.579,93.306c0.131,1.043 0.261,1.957 0.392,2.739c0.13,0.783 -0.131,1.501 -0.783,2.153c-1.044,0 -2.022,0.033 -2.936,0.098c-0.913,0.065 -2.022,-0.032 -3.327,-0.293c-1.174,-0.261 -2.055,-0.392 -2.642,-0.392l-1.663,0c-0.522,0 -0.946,-0.032 -1.272,-0.098c-0.327,-0.065 -0.751,-0.163 -1.273,-0.293l-2.152,-0c-1.827,-0.261 -3.556,-0.261 -5.187,-0c-1.63,0.261 -3.359,0.522 -5.186,0.783c0,1.304 0.065,2.087 0.196,2.348c-0,0.261 0.065,0.391 0.196,0.391c-0.261,1.044 -0.359,1.762 -0.294,2.153c0.065,0.392 0.098,0.783 0.098,1.175c-0,0.391 -0.065,0.782 -0.196,1.174c-0.13,0.391 -0.13,0.783 0,1.174c0,0.261 0.065,0.587 0.196,0.979l0.391,1.174c0,0.783 -0.065,1.696 -0.195,2.74c-0.131,1.043 -0.131,2.087 -0,3.131c-0,0.391 0.065,0.783 0.195,1.174c0.131,0.392 0.261,0.848 0.392,1.37c0.13,0.392 0.163,0.848 0.098,1.37c-0.066,0.522 -0.033,0.979 0.097,1.37c0.131,0.653 0.294,1.174 0.49,1.566c0.195,0.391 0.358,0.913 0.489,1.565c-0,0.653 0.033,1.436 0.098,2.349c0.065,0.913 0.098,1.696 0.098,2.348c-0.131,0.653 -0.294,1.338 -0.49,2.055c-0.195,0.718 -0.293,1.403 -0.293,2.055c-0,0.653 0.163,1.24 0.489,1.762c0.326,0.522 0.555,1.109 0.685,1.761c0.261,1.044 0.326,2.055 0.196,3.034c-0.131,0.978 -0.131,1.989 -0,3.033c-0,0.391 0.098,0.783 0.293,1.174c0.196,0.392 0.294,0.848 0.294,1.37c0.13,0.522 0.13,1.011 -0,1.468c-0.131,0.457 -0.131,0.881 -0,1.272c0.13,0.913 0.522,2.088 1.174,3.523c0.261,0.913 0.326,2.022 0.196,3.327c-0.261,1.174 -0.294,2.022 -0.098,2.544c0.196,0.522 0.294,0.979 0.294,1.37c0.261,1.827 0.326,3.686 0.195,5.578c-0.13,1.892 0.066,3.751 0.587,5.577c-0.261,0.392 -0.391,0.816 -0.391,1.273c-0,0.456 -0.13,0.815 -0.391,1.076c0.521,1.305 0.848,2.283 0.978,2.936c0,0.521 -0.065,0.978 -0.196,1.369c-0.13,0.392 -0.195,0.849 -0.195,1.37c-0,0.653 0.065,1.175 0.195,1.566l0.392,1.174c-0,0.522 -0.065,0.979 -0.196,1.37c-0.13,0.392 -0.196,0.914 -0.196,1.566c0,0.391 0.033,0.815 0.098,1.272c0.065,0.457 0.098,0.881 0.098,1.272c0,1.044 0.033,1.99 0.098,2.838c0.065,0.848 0.033,1.663 -0.098,2.446l-0.489,0.979c-0.196,0.391 -0.294,0.783 -0.294,1.174c0,0.652 0.033,1.37 0.098,2.153c0.065,0.783 0.098,1.5 0.098,2.153c-0.261,1.043 -0.326,1.761 -0.196,2.152c0.131,0.392 0.196,0.718 0.196,0.979c-0.13,0.783 -0.294,1.631 -0.489,2.544c-0.196,0.913 -0.294,1.696 -0.294,2.349c0.522,1.435 0.848,2.479 0.979,3.131c0.13,0.652 0.326,1.305 0.587,1.957c0.261,0.783 0.359,1.305 0.293,1.566c-0.065,0.261 -0.097,0.783 -0.097,1.565c-0,0.392 0.097,0.848 0.293,1.37c0.196,0.522 -0.033,0.979 -0.685,1.37c0.652,0.522 1.24,1.109 1.761,1.762c0.522,0.652 0.588,1.696 0.196,3.131c-0.261,0.913 -0.815,1.468 -1.663,1.664c-0.848,0.195 -1.533,0.619 -2.055,1.272c-2.218,-0.522 -4.11,-0.881 -5.676,-1.077c-1.565,-0.195 -3.001,-0.554 -4.305,-1.076c-0.653,0.13 -1.175,0.261 -1.566,0.391c-0.391,0.131 -0.913,0.261 -1.566,0.392l-1.663,-0c-0.457,-0 -0.816,-0.131 -1.077,-0.392c-0.391,0.522 -0.913,0.783 -1.565,0.783c-0.653,0 -1.501,0.065 -2.544,0.196c-1.175,-0 -1.86,0.065 -2.055,0.196c-0.196,0.13 -0.424,0.26 -0.685,0.391c-0.392,0.13 -0.979,0.163 -1.762,0.098c-0.783,-0.065 -1.435,-0.033 -1.957,0.098c-0.652,0.13 -1.37,0.228 -2.153,0.293c-0.782,0.065 -1.5,-0.098 -2.152,-0.489c-1.044,-0.261 -1.533,-0.946 -1.468,-2.055c0.065,-1.109 -0.163,-2.055 -0.685,-2.838c0.13,-0.783 0.424,-1.402 0.88,-1.859c0.457,-0.457 0.49,-1.076 0.098,-1.859c0.392,-0.522 0.783,-1.011 1.175,-1.468c0.391,-0.457 0.717,-0.946 0.978,-1.468c0.261,-0.652 0.392,-1.37 0.392,-2.153c-0,-0.782 0.13,-1.435 0.391,-1.957c0.261,-0.522 0.326,-0.978 0.196,-1.37c-0.131,-0.391 -0.196,-0.913 -0.196,-1.565c-0,-0.914 0.065,-1.794 0.196,-2.642c0.13,-0.848 -0.066,-1.729 -0.587,-2.642c0.391,-0.783 0.587,-1.599 0.587,-2.447l-0,-2.25c0.261,-1.044 0.293,-1.827 0.098,-2.349c-0.196,-0.522 -0.294,-0.978 -0.294,-1.37c-0,-0.652 0.13,-1.272 0.391,-1.859c0.261,-0.587 0.392,-1.207 0.392,-1.859c-0.392,-1.436 -0.522,-2.512 -0.392,-3.229c0.131,-0.718 0.196,-1.273 0.196,-1.664c0,-1.174 -0.196,-2.153 -0.587,-2.936c-0,-1.565 0.033,-2.837 0.098,-3.816c0.065,-0.978 0.098,-1.99 0.098,-3.033c-0.131,-1.175 -0.196,-2.512 -0.196,-4.012c-0,-1.501 -0.131,-2.838 -0.391,-4.012c-0.392,-2.74 -0.392,-5.154 -0,-7.242c0.391,-2.087 0.065,-3.914 -0.979,-5.479c0.522,-1.827 0.587,-3.915 0.196,-6.263c-0.392,-2.349 -0.326,-4.306 0.195,-5.871c0.131,-0.783 -0.065,-1.207 -0.587,-1.272c-0.522,-0.066 -0.717,-0.424 -0.587,-1.077l0,-3.229c0,-1.109 -0.13,-2.12 -0.391,-3.033c-0.653,-1.175 -0.881,-2.969 -0.685,-5.382c0.195,-2.414 0.359,-4.469 0.489,-6.165c-0.261,-0.653 -0.489,-1.142 -0.685,-1.468c-0.196,-0.326 -0.359,-0.816 -0.489,-1.468c-0.261,-1.044 -0.229,-2.087 0.098,-3.131c0.326,-1.044 0.554,-2.153 0.685,-3.327c0.13,-0.914 0.163,-1.794 0.097,-2.642c-0.065,-0.848 -0.032,-1.599 0.098,-2.251c0.131,-1.044 0.066,-2.283 -0.195,-3.718c-0.261,-1.436 -0.392,-2.74 -0.392,-3.915c-1.565,0.131 -3.131,0.294 -4.697,0.49c-1.565,0.195 -3.196,0.359 -4.892,0.489c-1.175,-0.13 -2.447,-0.13 -3.817,-0c-1.37,0.13 -2.511,0.261 -3.425,0.391c-1.826,0.522 -3.327,0.751 -4.501,0.685c-1.174,-0.065 -2.283,-0.032 -3.327,0.098c-1.566,0.261 -3.164,0.62 -4.795,1.077c-1.631,0.456 -3.359,0.489 -5.186,0.097c-0.652,-1.043 -0.913,-2.185 -0.783,-3.424c0.131,-1.24 0.131,-2.251 0,-3.034c-0.13,-0.652 -0.196,-1.207 -0.196,-1.663l0,-1.86c0.261,-1.043 0.294,-1.696 0.098,-1.957c-0.195,-0.261 -0.359,-0.456 -0.489,-0.587c-0.131,-0.652 -0.131,-1.37 -0,-2.153c0.13,-0.782 0.196,-1.5 0.196,-2.152c-0,-0.653 -0.229,-1.044 -0.685,-1.175c-0.457,-0.13 -0.62,-0.522 -0.49,-1.174c0,-0.913 -0.065,-1.892 -0.195,-2.936c-0.131,-1.043 -0.261,-2.12 -0.392,-3.229c-0.13,-1.109 -0.098,-2.152 0.098,-3.131c0.196,-0.979 0.62,-1.794 1.272,-2.446c0.653,-0.261 1.305,-0.424 1.957,-0.49c0.653,-0.065 1.501,0.033 2.545,0.294c1.696,0.261 2.935,0.522 3.718,0.783c0.783,0.261 1.5,0.456 2.153,0.587c0.391,-0 0.815,-0.065 1.272,-0.196c0.457,-0.13 1.011,-0.196 1.663,-0.196c0.653,0 1.24,0.066 1.762,0.196c0.522,0.131 1.109,0.196 1.761,0.196c0.522,0.13 1.109,0.196 1.761,0.196c0.261,-0 0.522,0.065 0.783,0.195c0.653,0 1.305,-0.13 1.957,-0.391c0.653,-0.261 1.305,-0.392 1.957,-0.392c0.783,0 1.566,0.098 2.349,0.294c0.783,0.196 1.566,0.359 2.348,0.489c0.392,0 0.783,-0.032 1.175,-0.098c0.391,-0.065 0.848,-0.163 1.37,-0.293c1.174,-0 1.989,-0.065 2.446,-0.196c0.457,-0.13 0.881,-0.261 1.272,-0.391c0.392,-0 0.75,0.065 1.077,0.195c0.326,0.131 0.684,0.196 1.076,0.196c1.566,-0.522 2.936,-0.717 4.11,-0.587c1.174,0.131 2.218,0.065 3.131,-0.196c0.522,0 0.881,0.131 1.077,0.392c0.195,0.261 0.489,0.456 0.88,0.587c0.783,-0.261 1.403,-0.424 1.859,-0.489c0.457,-0.066 0.946,0.228 1.468,0.88c0.522,-0.391 1.044,-0.717 1.566,-0.978c0.522,-0.261 1.174,-0.392 1.957,-0.392c0.522,-0.13 1.174,-0.032 1.957,0.294c0.783,0.326 1.631,0.424 2.544,0.293c0.522,0.261 1.338,0.327 2.447,0.196c1.109,-0.13 1.859,0.065 2.25,0.587c0.653,-0.13 1.24,-0.228 1.762,-0.293c0.521,-0.066 1.043,-0.163 1.565,-0.294c1.696,0 2.805,0.065 3.327,0.196c0.392,-0 0.751,0.065 1.077,0.196c0.326,0.13 0.75,0.261 1.272,0.391c1.044,0.261 2.153,0.359 3.327,0.294c1.174,-0.066 2.283,-0.098 3.327,-0.098c1.826,-0.131 3.686,-0.359 5.578,-0.685c1.891,-0.326 3.359,-0.229 4.403,0.293c0.261,0.131 0.685,0.522 1.272,1.175c0.587,0.652 0.946,1.109 1.076,1.369c0.131,0.261 0.196,0.653 0.196,1.175l0,1.37c0.131,1.696 0.098,3.522 -0.098,5.48c-0.195,1.957 -0.228,3.914 -0.098,5.871c0,1.044 0.098,2.022 0.294,2.935c0.196,0.914 0.359,1.762 0.489,2.545Zm130.929,61.648c-0.261,1.435 -0.261,2.609 -0,3.522c0.261,0.914 0.13,1.696 -0.391,2.349c0.782,0.652 1.076,1.435 0.88,2.348c-0.196,0.914 -0.424,1.892 -0.685,2.936c-0.13,0.652 -0.13,1.305 0,1.957c0.131,0.652 0.131,1.174 0,1.566c-0.652,1.174 -1.076,2.022 -1.272,2.544c-0.196,0.522 -0.424,0.783 -0.685,0.783c0.131,0.783 0.065,1.565 -0.196,2.348l-0.782,2.349c-0.261,1.043 -0.49,1.696 -0.685,1.957c-0.196,0.261 -0.294,0.522 -0.294,0.783c-0.13,1.304 -0.294,2.185 -0.489,2.642c-0.196,0.456 -0.359,0.815 -0.489,1.076l-2.349,6.263c-0.652,1.304 -1.239,2.577 -1.761,3.816c-0.522,1.24 -1.24,2.316 -2.153,3.229c-0,0.653 0.032,1.077 0.098,1.272c0.065,0.196 0.032,0.62 -0.098,1.272c-0.652,0.653 -1.24,1.207 -1.762,1.664c-0.521,0.457 -1.043,1.207 -1.565,2.251c-0.392,1.043 -1.044,2.087 -1.957,3.131c-0.522,0.652 -1.109,1.142 -1.762,1.468c-0.652,0.326 -1.304,0.815 -1.957,1.468c-0.652,-0 -1.043,0.065 -1.174,0.195c-0.13,0.131 -0.457,0.065 -0.978,-0.195c-1.044,1.043 -2.023,1.826 -2.936,2.348c-0.913,0.522 -2.218,1.044 -3.914,1.566c-0.783,0.261 -1.338,0.391 -1.664,0.391c-0.326,0 -0.62,0.065 -0.88,0.196c-0.783,0.261 -1.599,0.554 -2.447,0.88c-0.848,0.327 -1.794,0.49 -2.838,0.49c-1.435,-0.131 -2.446,-0.098 -3.033,0.098c-0.587,0.195 -1.207,0.358 -1.859,0.489c-1.044,0.261 -2.153,0.359 -3.327,0.293c-1.175,-0.065 -2.349,-0.032 -3.523,0.098c-1.044,0 -1.696,0.098 -1.957,0.294c-0.261,0.196 -0.522,0.293 -0.783,0.293c-1.044,0 -1.794,-0.032 -2.251,-0.097c-0.456,-0.066 -0.815,-0.033 -1.076,0.097c-0.783,0.131 -1.566,0.359 -2.349,0.685c-0.782,0.327 -1.826,0.359 -3.131,0.098c-2.218,0.522 -4.436,0.816 -6.654,0.881c-2.218,0.065 -3.979,-0.424 -5.284,-1.468c-0.783,0.392 -1.631,0.457 -2.544,0.196c-0.914,-0.261 -1.533,-0.424 -1.859,-0.489c-0.327,-0.066 -0.62,-0.098 -0.881,-0.098c-1.305,-0.261 -2.642,-0.62 -4.012,-1.077c-1.37,-0.456 -2.577,-1.076 -3.621,-1.859c-1.826,-0.652 -3.164,-1.239 -4.012,-1.761c-0.848,-0.522 -1.924,-0.848 -3.229,-0.979c-0.783,-0.783 -1.37,-1.435 -1.761,-1.957c-0.392,-0.522 -0.718,-0.913 -0.979,-1.174c-0.261,-0.261 -0.587,-0.424 -0.978,-0.489c-0.392,-0.066 -0.718,-0.229 -0.979,-0.49c-1.044,-0.913 -1.794,-1.467 -2.251,-1.663c-0.456,-0.196 -0.815,-0.424 -1.076,-0.685c-0.261,-0.261 -0.522,-0.555 -0.783,-0.881c-0.261,-0.326 -0.522,-0.685 -0.783,-1.076c-1.174,-1.435 -2.022,-2.414 -2.544,-2.936c-0.522,-0.522 -1.044,-0.978 -1.565,-1.37c-0.131,-0.522 -0.294,-0.913 -0.49,-1.174c-0.195,-0.261 -0.228,-0.718 -0.098,-1.37c-0.913,-0.783 -1.435,-1.305 -1.565,-1.566c-0.131,-0.261 -0.261,-0.456 -0.392,-0.587c-0.913,-1.435 -1.696,-2.479 -2.348,-3.131c-0.261,-0.392 -0.457,-0.848 -0.587,-1.37c-0.131,-0.522 -0.326,-1.24 -0.587,-2.153c-0.261,-1.174 -0.522,-2.12 -0.783,-2.838c-0.261,-0.717 -0.261,-1.402 -0,-2.055c-0.261,-0.391 -0.555,-0.717 -0.881,-0.978c-0.326,-0.261 -0.554,-0.587 -0.685,-0.979c-0.261,-1.043 -0.359,-2.022 -0.293,-2.935c0.065,-0.914 -0.033,-1.827 -0.294,-2.74c-0.131,-0.653 -0.359,-1.24 -0.685,-1.762c-0.326,-0.521 -0.359,-1.109 -0.098,-1.761c-0.391,-0.391 -0.685,-0.881 -0.881,-1.468c-0.195,-0.587 -0.489,-1.076 -0.88,-1.468c0.261,-0.782 0.228,-1.565 -0.098,-2.348c-0.326,-0.783 -0.489,-1.696 -0.489,-2.74c-0,-0.522 0.032,-1.011 0.097,-1.468c0.066,-0.456 0.164,-1.011 0.294,-1.663l0,-3.327c0.131,-0.783 0.294,-1.501 0.489,-2.153c0.196,-0.652 0.424,-1.305 0.685,-1.957c0.131,-0.783 0.196,-1.468 0.196,-2.055c-0,-0.587 0.261,-1.011 0.783,-1.272c-0.522,-1.696 -0.457,-3.262 0.196,-4.697c0.652,-1.435 0.978,-3.001 0.978,-4.697c0.261,-0.261 0.457,-0.62 0.587,-1.077c0.131,-0.456 0.326,-0.815 0.587,-1.076c0,-1.435 0.229,-2.609 0.685,-3.523c0.457,-0.913 0.816,-1.892 1.077,-2.935c0.783,-0.261 1.337,-0.685 1.663,-1.272c0.326,-0.588 0.685,-1.207 1.077,-1.86c0.782,-0.522 1.304,-1.141 1.565,-1.859c0.261,-0.718 0.718,-1.011 1.37,-0.881c0.783,-1.174 1.403,-2.152 1.859,-2.935c0.457,-0.783 1.142,-1.435 2.055,-1.957l1.957,-0.979c0.261,-0.13 0.522,-0.326 0.783,-0.587c0.392,-0.391 0.718,-0.75 0.979,-1.076c0.261,-0.327 0.522,-0.62 0.783,-0.881c1.174,-0.913 2.348,-1.631 3.522,-2.153c0.392,-0.522 0.881,-0.978 1.468,-1.37c0.587,-0.391 1.207,-0.783 1.859,-1.174c1.044,-0.652 1.762,-1.044 2.153,-1.174c0.392,-0.131 0.718,-0.196 0.979,-0.196c0.391,-0.261 0.946,-0.62 1.663,-1.076c0.718,-0.457 1.403,-0.49 2.055,-0.098c1.566,-1.566 4.371,-2.349 8.416,-2.349l4.697,-1.174c1.043,-0.261 2.413,-0.326 4.11,-0.196c0.521,0 1.011,0.066 1.467,0.196c0.457,0.13 0.881,0.196 1.272,0.196c0.653,-0 1.273,-0.066 1.86,-0.196c0.587,-0.13 1.207,-0.261 1.859,-0.391c1.696,-0.261 3.001,-0.424 3.914,-0.49c0.913,-0.065 1.827,0.033 2.74,0.294c1.435,0.391 2.446,0.554 3.033,0.489c0.588,-0.065 1.012,-0.098 1.273,-0.098l1.174,0.392c0.391,0.13 0.717,0.261 0.978,0.391c1.436,0.392 2.479,0.587 3.132,0.587c0.652,0 1.174,0.065 1.565,0.196c0.522,-0 1.044,0.098 1.566,0.294c0.522,0.195 1.044,0.424 1.566,0.685c0.522,0.13 1.043,0.293 1.565,0.489c0.522,0.195 1.044,0.359 1.566,0.489c1.827,0.391 3.523,0.522 5.088,0.391c1.566,-0.13 3.262,0.196 5.089,0.979c0.261,0.13 0.587,0.326 0.978,0.587l1.175,0.783c0.652,0.13 1.109,0.326 1.37,0.587c0.26,0.261 0.521,0.457 0.782,0.587c2.218,1.174 3.98,2.283 5.284,3.327c1.305,1.044 2.545,2.088 3.719,3.132c-0,0.652 0.13,1.206 0.391,1.663c0.261,0.457 0.522,0.946 0.783,1.468c0.653,0.522 1.174,1.011 1.566,1.468c0.391,0.456 0.848,0.946 1.37,1.468c0.261,0.26 0.359,0.587 0.293,0.978c-0.065,0.391 0.033,0.848 0.294,1.37c0.261,0.652 0.62,1.37 1.076,2.153c0.457,0.783 0.881,1.5 1.272,2.153c0,1.043 0.066,1.63 0.196,1.761c0.131,0.13 0.392,0.652 0.783,1.566l0.978,2.446c0.392,0.979 1.109,1.663 2.153,2.055c-0.13,0.652 0,1.337 0.392,2.055c0.391,0.717 0.652,1.468 0.783,2.25c0.13,0.914 0.195,1.827 0.195,2.74l0,2.545c-0.13,1.435 -0.13,2.446 0,3.033c0.131,0.587 0.196,1.142 0.196,1.664Zm-23.289,-2.153c-0.131,-1.044 -0.163,-1.696 -0.098,-1.957c0.065,-0.261 0.032,-0.718 -0.098,-1.37c-0.261,-1.305 -0.652,-2.544 -1.174,-3.719c-0.522,-1.174 -0.914,-2.544 -1.175,-4.11c-0.13,-0.782 -0.163,-1.598 -0.097,-2.446c0.065,-0.848 -0.033,-1.729 -0.294,-2.642c-0.522,-0.261 -0.815,-0.652 -0.881,-1.174c-0.065,-0.522 -0.293,-0.914 -0.685,-1.174c-0.261,-0.522 -0.652,-0.914 -1.174,-1.175c-0.522,-0.261 -0.848,-0.717 -0.978,-1.37c-1.436,-0.652 -2.675,-1.304 -3.719,-1.957c-1.305,0 -2.609,-0.13 -3.914,-0.391c-0.652,-0.261 -1.142,-0.522 -1.468,-0.783c-0.326,-0.261 -0.75,-0.457 -1.272,-0.587c-1.044,-0.131 -1.761,-0 -2.153,0.391c-0.391,0.392 -1.174,0.457 -2.348,0.196c-0.653,-0.261 -1.142,-0.75 -1.468,-1.468c-0.326,-0.717 -0.815,-1.272 -1.468,-1.663c-0.652,-0.261 -1.076,-0.359 -1.272,-0.294c-0.196,0.065 -0.62,0.098 -1.272,0.098c-0.391,-0.13 -0.652,-0.359 -0.783,-0.685c-0.13,-0.326 -0.522,-0.424 -1.174,-0.294c-1.174,0.261 -2.446,0.62 -3.816,1.077c-1.37,0.456 -2.773,0.359 -4.208,-0.294c-0.652,0.131 -1.142,0.326 -1.468,0.587c-0.326,0.261 -0.685,0.522 -1.076,0.783c-0,-0.391 -0.294,-0.522 -0.881,-0.391c-0.587,0.13 -1.011,0.13 -1.272,-0c-1.044,0.783 -2.283,1.468 -3.719,2.055c-1.435,0.587 -2.674,1.141 -3.718,1.663c-1.044,0.392 -1.794,0.848 -2.251,1.37c-0.456,0.522 -0.815,0.914 -1.076,1.174c-0.391,0.392 -0.75,0.783 -1.076,1.175c-0.327,0.391 -0.751,0.717 -1.273,0.978c-1.826,1.044 -3.196,2.055 -4.109,3.034c-0.914,0.978 -1.892,1.728 -2.936,2.25c-0.131,1.044 -0.555,1.86 -1.272,2.447c-0.718,0.587 -1.272,1.402 -1.664,2.446c-0.261,0.652 -0.489,1.435 -0.685,2.349c-0.195,0.913 -0.424,1.696 -0.685,2.348c-0.782,2.349 -1.141,4.338 -1.076,5.969c0.065,1.631 -0.294,3.099 -1.076,4.404c0.391,0.261 0.554,0.652 0.489,1.174c-0.065,0.522 -0.033,1.044 0.098,1.565c0.261,0.653 0.489,1.305 0.685,1.958c0.195,0.652 0.163,1.37 -0.098,2.152c-0,1.305 0.065,2.218 0.196,2.74c0.652,0.914 0.945,1.501 0.88,1.762c-0.065,0.261 -0.032,0.522 0.098,0.782c0.131,0.392 0.359,0.783 0.685,1.175c0.326,0.391 0.359,0.913 0.098,1.565c0.652,0.261 1.011,0.653 1.076,1.175c0.066,0.522 0.359,0.913 0.881,1.174c-0.261,0.783 -0.098,1.566 0.489,2.348c0.587,0.783 0.75,1.762 0.49,2.936c0.652,0.522 0.978,0.913 0.978,1.174c0,0.261 0.065,0.522 0.196,0.783l0.88,0.881c0.327,0.326 0.49,0.815 0.49,1.468c0.652,0.261 1.207,0.685 1.663,1.272c0.457,0.587 1.011,1.141 1.664,1.663c0.261,0.261 0.554,0.489 0.88,0.685c0.327,0.196 0.62,0.424 0.881,0.685c0.653,0.392 1.174,0.783 1.566,1.174c0.391,0.392 0.783,0.718 1.174,0.979c0.652,0.652 1.24,1.011 1.761,1.076c0.522,0.066 0.979,0.229 1.37,0.49c0.392,0.261 0.751,0.521 1.077,0.782c0.326,0.261 0.62,0.457 0.88,0.588c1.044,0.391 2.153,0.619 3.328,0.685c1.174,0.065 2.218,0.619 3.131,1.663c1.044,0 1.99,0.163 2.838,0.489c0.848,0.326 1.924,0.424 3.229,0.294c0.522,-0 0.913,0.163 1.174,0.489c0.261,0.326 0.718,0.489 1.37,0.489c0.652,-0.13 1.109,-0.261 1.37,-0.391c0.261,-0.13 0.718,-0.196 1.37,-0.196c0.652,-0.13 1.272,-0.098 1.859,0.098c0.587,0.196 1.142,0.294 1.664,0.294c0.652,-0.131 1.402,-0.392 2.25,-0.783c0.848,-0.392 1.468,-0.718 1.86,-0.979c0.652,-0.391 1.239,-0.75 1.761,-1.076c0.522,-0.326 1.174,-0.489 1.957,-0.489c0.13,-0.653 0.424,-1.142 0.881,-1.468c0.456,-0.326 0.88,-0.685 1.272,-1.077c0.652,-0.652 1.239,-1.206 1.761,-1.663c0.522,-0.457 0.979,-1.011 1.37,-1.664c0.261,-0.521 0.587,-0.945 0.979,-1.272c0.391,-0.326 0.717,-0.685 0.978,-1.076c0.913,-1.174 1.696,-2.381 2.349,-3.621c0.652,-1.239 1.304,-2.511 1.957,-3.816c0.391,-0.652 0.783,-1.337 1.174,-2.055c0.391,-0.717 0.718,-1.468 0.979,-2.251c0.13,-1.304 0.293,-2.12 0.489,-2.446c0.195,-0.326 0.163,-0.62 -0.098,-0.881c0.261,-1.043 0.489,-1.924 0.685,-2.642c0.196,-0.717 0.228,-1.467 0.098,-2.25c0.652,-0.653 0.978,-1.435 0.978,-2.349c0,-0.913 0.131,-1.957 0.392,-3.131c0.13,-0.652 0.326,-1.207 0.587,-1.664c0.261,-0.456 0.391,-1.011 0.391,-1.663c0.261,-1.044 0.392,-2.251 0.392,-3.621l-0,-3.033Zm112.336,-24.855c-0.783,0.913 -1.272,1.37 -1.468,1.37c-0.195,-0 -0.424,0.13 -0.685,0.391c-1.565,0.914 -2.413,1.305 -2.544,1.175c-1.044,-0.131 -1.761,-0.653 -2.153,-1.566c-0.391,-0.913 -1.109,-1.631 -2.153,-2.153c-0.652,0.261 -1.304,0.326 -1.957,0.196c-0.652,-0.131 -1.304,-0.131 -1.957,-0c-0.652,0.13 -1.239,0.326 -1.761,0.587c-0.522,0.261 -1.109,0.522 -1.761,0.783c-1.827,0.652 -3.067,1.141 -3.719,1.468c-0.652,0.326 -1.305,0.685 -1.957,1.076c-0.522,0.522 -0.913,1.011 -1.174,1.468c-0.261,0.456 -0.718,1.011 -1.37,1.663c-0.783,0.653 -1.664,1.272 -2.642,1.859c-0.979,0.588 -1.794,1.207 -2.447,1.86c-0.261,0.391 -0.456,0.88 -0.587,1.468c-0.13,0.587 -0.391,1.141 -0.783,1.663c-0.913,0.783 -1.435,1.305 -1.565,1.566c-0.131,0.261 -0.261,0.456 -0.392,0.587c-0.391,0.652 -0.554,1.174 -0.489,1.565c0.065,0.392 0.033,0.718 -0.098,0.979c-0.13,0.261 -0.391,0.685 -0.783,1.272c-0.391,0.587 -0.456,1.272 -0.195,2.055c-0.783,1.044 -1.175,1.794 -1.175,2.251c0,0.456 -0.065,0.815 -0.195,1.076c-0.653,0.652 -1.011,1.207 -1.077,1.664c-0.065,0.456 -0.228,0.88 -0.489,1.272c-0.652,1.174 -0.946,2.055 -0.881,2.642c0.066,0.587 0.033,1.141 -0.097,1.663c-0.392,1.435 -0.588,2.512 -0.588,3.229c0,0.718 -0.065,1.403 -0.195,2.055c-0.131,0.914 -0.326,1.794 -0.587,2.642c-0.261,0.849 -0.522,1.794 -0.783,2.838c-0.131,0.653 -0.131,1.338 -0,2.055c0.13,0.718 0.065,1.533 -0.196,2.446c0,0.392 -0.098,0.783 -0.293,1.175c-0.196,0.391 -0.294,0.913 -0.294,1.565c-0.131,1.044 -0.065,2.023 0.196,2.936c0.261,0.913 -0.066,1.761 -0.979,2.544c0.392,0.783 0.62,1.925 0.685,3.425c0.065,1.501 -0.228,2.577 -0.881,3.229c0.522,1.435 0.751,3.001 0.685,4.697c-0.065,1.696 -0.163,3.425 -0.293,5.187c-0.131,1.761 -0.228,3.522 -0.294,5.284c-0.065,1.761 0.098,3.425 0.49,4.99c0.26,0.914 0.848,1.403 1.761,1.468c0.913,0.065 1.696,0.359 2.348,0.881c0,0.391 0.163,0.75 0.49,1.076c0.326,0.326 0.619,0.816 0.88,1.468c0.131,0.913 -0.13,1.827 -0.782,2.74c-0.653,0.913 -1.305,1.5 -1.958,1.761c-0.521,0.261 -1.043,0.294 -1.565,0.098c-0.522,-0.196 -1.305,-0.163 -2.349,0.098c-0.522,0.13 -1.109,0.359 -1.761,0.685c-0.652,0.326 -1.305,0.62 -1.957,0.881c-1.044,0.391 -2.283,0.75 -3.719,1.076c-1.435,0.326 -2.87,0.62 -4.305,0.881c-0.653,0.13 -1.305,0.228 -1.957,0.293c-0.653,0.065 -1.305,0.163 -1.957,0.294c-0.783,0.261 -1.566,0.554 -2.349,0.88c-0.783,0.327 -1.5,0.424 -2.153,0.294c-1.304,-0.261 -2.218,-0.979 -2.74,-2.153c-0.521,-1.174 -0.782,-2.479 -0.782,-3.914c-0,-0.652 0.097,-1.272 0.293,-1.859c0.196,-0.587 0.229,-1.207 0.098,-1.859c0,-0.653 -0.098,-1.272 -0.294,-1.86c-0.195,-0.587 -0.358,-1.206 -0.489,-1.859c-0.261,-1.696 -0.326,-3.425 -0.195,-5.186c0.13,-1.761 0.195,-3.555 0.195,-5.382c0,-0.522 0.065,-1.011 0.196,-1.468c0.13,-0.457 0.196,-0.881 0.196,-1.272c-0.131,-0.522 -0.261,-1.011 -0.392,-1.468c-0.13,-0.456 -0.195,-0.946 -0.195,-1.468c-0.261,-1.043 -0.457,-1.957 -0.588,-2.739c-0.13,-0.783 -0.261,-1.762 -0.391,-2.936c-0,-0.392 -0.033,-0.848 -0.098,-1.37c-0.065,-0.522 -0.098,-0.979 -0.098,-1.37c0,-0.913 0.098,-1.729 0.294,-2.446c0.196,-0.718 0.359,-1.468 0.489,-2.251c-0.261,-1.435 -0.293,-2.74 -0.098,-3.914c0.196,-1.174 0.294,-2.218 0.294,-3.132c-0.131,-0.782 -0.294,-1.565 -0.489,-2.348c-0.196,-0.783 -0.359,-1.566 -0.49,-2.348c0,-0.392 0.033,-0.881 0.098,-1.468c0.065,-0.587 0.098,-0.946 0.098,-1.077c-0.391,-1.696 -0.62,-3.066 -0.685,-4.11c-0.065,-1.043 -0.163,-1.891 -0.294,-2.544c-0.13,-1.435 -0.097,-2.446 0.098,-3.033c0.196,-0.587 0.359,-1.207 0.49,-1.859c0.26,-1.305 0.293,-2.643 0.097,-4.012c-0.195,-1.37 -0.228,-2.708 -0.097,-4.012c0.13,-1.044 0.358,-2.023 0.685,-2.936c0.326,-0.913 0.489,-1.892 0.489,-2.936c-0,-0.391 -0.033,-0.815 -0.098,-1.272c-0.065,-0.456 -0.098,-0.881 -0.098,-1.272c0,-0.391 0.065,-0.815 0.196,-1.272c0.13,-0.457 0.196,-0.881 0.196,-1.272c-0.131,-0.261 -0.261,-0.62 -0.392,-1.077c-0.13,-0.456 -0.196,-0.88 -0.196,-1.272c-0.261,-0.913 -0.261,-1.794 0,-2.642c0.261,-0.848 0.392,-1.794 0.392,-2.837c-0,-0.653 -0.065,-1.305 -0.196,-1.958l-0.391,-1.957c-0,-0.261 0.032,-0.619 0.098,-1.076c0.065,-0.457 0.032,-0.815 -0.098,-1.076c-0.261,-1.305 -0.294,-2.382 -0.098,-3.23c0.196,-0.848 0.293,-1.663 0.293,-2.446c0,-1.044 -0.065,-2.022 -0.195,-2.936c-0.131,-0.913 0.065,-1.891 0.587,-2.935c-0,-0.653 -0.196,-1.207 -0.587,-1.664c-0.392,-0.456 -0.718,-0.946 -0.979,-1.467c0.522,-1.044 0.62,-2.088 0.294,-3.132c-0.326,-1.044 -0.359,-2.087 -0.098,-3.131c1.044,-1.044 2.087,-1.501 3.131,-1.37c1.044,-0 1.762,0.293 2.153,0.881c0.391,0.587 0.848,1.076 1.37,1.467c1.435,0.392 2.74,0.49 3.914,0.294c1.174,-0.196 2.479,-0.294 3.914,-0.294c0.783,0 1.533,0.066 2.251,0.196c0.717,0.131 1.402,0.196 2.055,0.196c1.044,-0.131 1.99,-0.424 2.838,-0.881c0.848,-0.457 2.055,-0.424 3.62,0.098c0.522,0.261 0.816,0.62 0.881,1.076c0.065,0.457 0.293,1.012 0.685,1.664c0.13,1.044 0.261,1.663 0.391,1.859c0.131,0.196 0.196,0.424 0.196,0.685c-0.261,1.174 -0.522,2.283 -0.783,3.327c-0.261,1.044 -0.196,2.218 0.196,3.523c0.783,-0 1.402,-0.228 1.859,-0.685l3.229,-3.229c1.044,-0.914 1.794,-1.631 2.251,-2.153c0.457,-0.522 0.881,-0.913 1.272,-1.174c0.391,-0.392 0.848,-0.718 1.37,-0.979c0.522,-0.261 0.913,-0.652 1.174,-1.174c1.174,-0.261 2.349,-0.75 3.523,-1.468c1.174,-0.718 2.479,-0.815 3.914,-0.293c0.652,-0.653 1.664,-1.207 3.034,-1.664c1.37,-0.457 2.446,-0.294 3.229,0.489c2.479,0 4.631,-0.391 6.458,-1.174c1.827,-0.783 3.523,-0.979 5.089,-0.587c0.652,0.13 1.141,0.359 1.467,0.685c0.326,0.326 0.751,0.62 1.272,0.881c0.392,0.13 0.816,0.261 1.273,0.391c0.456,0.13 0.88,0.326 1.272,0.587c0.913,1.435 1.206,2.968 0.88,4.599c-0.326,1.631 -0.554,3.295 -0.685,4.991c0.131,1.565 0.131,2.74 0,3.523c-0.13,0.782 -0.195,1.5 -0.195,2.152c-0,1.436 0.065,2.903 0.195,4.404c0.131,1.5 0.196,3.033 0.196,4.599Zm72.412,-10.96c-0.13,1.305 -0.13,2.218 -0,2.74c0.13,0.522 0.13,0.913 -0,1.174c-0.261,0.914 -0.718,1.533 -1.37,1.86c-0.652,0.326 -1.239,0.75 -1.761,1.272c-1.305,-0.653 -2.479,-0.783 -3.523,-0.392c-1.044,0.392 -2.088,0.718 -3.131,0.979c-0.261,-0 -0.685,0.032 -1.273,0.098c-0.587,0.065 -1.011,0.098 -1.272,0.098c-1.043,-0 -2.022,0.195 -2.935,0.587c-0.914,0.391 -1.762,0.652 -2.544,0.783c-0.653,0.13 -1.24,0.13 -1.762,-0c-0.522,-0.131 -1.109,-0 -1.761,0.391c-0.522,1.174 -0.685,2.446 -0.489,3.816c0.195,1.37 0.163,2.773 -0.098,4.208c-0.261,2.088 -0.294,3.751 -0.098,4.991c0.196,1.239 0.293,2.381 0.293,3.424c0,1.175 -0.032,2.284 -0.097,3.327c-0.066,1.044 0.163,2.023 0.685,2.936c-0.392,0.783 -0.62,1.729 -0.685,2.838c-0.066,1.109 -0.098,2.185 -0.098,3.229c-0.261,1.827 -0.261,3.914 -0,6.263c0.261,2.348 0.391,4.436 0.391,6.262c-0.13,0.914 -0.228,1.729 -0.293,2.447c-0.066,0.717 -0.164,1.467 -0.294,2.25c-0.261,1.044 -0.326,1.696 -0.196,1.957c0.131,0.261 0.196,0.522 0.196,0.783c-0.13,1.305 -0.163,2.805 -0.098,4.501c0.065,1.697 0.033,3.458 -0.098,5.285c0,1.174 -0.065,2.022 -0.195,2.544c-0.131,0.522 -0.196,0.978 -0.196,1.37c0.13,1.044 0.293,2.153 0.489,3.327c0.196,1.174 -0.163,2.348 -1.076,3.523c-0,0.391 0.098,0.75 0.293,1.076c0.196,0.326 0.359,0.685 0.49,1.076c-0.261,1.044 -0.294,1.827 -0.098,2.349c0.195,0.522 0.293,0.913 0.293,1.174c-0.261,1.435 -0.326,2.642 -0.195,3.621c0.13,0.978 0.261,1.924 0.391,2.837c-0,4.045 -0.848,6.72 -2.544,8.024c-1.696,-0.26 -3.36,-0.521 -4.991,-0.782c-1.631,-0.261 -3.294,-0.261 -4.99,-0c-0.783,0.13 -1.566,0.293 -2.349,0.489c-0.783,0.196 -1.696,0.098 -2.74,-0.294c-0.652,0.131 -1.109,0.294 -1.37,0.49c-0.261,0.195 -0.652,0.293 -1.174,0.293c-0.522,0.131 -0.978,0 -1.37,-0.391c-0.391,-0.392 -0.848,-0.653 -1.37,-0.783c-0.261,-1.566 -0.293,-3.523 -0.098,-5.871c0.196,-2.349 0.229,-4.828 0.098,-7.437c0,-0.653 -0.065,-1.207 -0.196,-1.664c-0.13,-0.456 -0.26,-1.011 -0.391,-1.663c-0.13,-0.914 -0.163,-1.859 -0.098,-2.838c0.065,-0.979 0.033,-1.99 -0.098,-3.033c0,-0.392 0.066,-0.816 0.196,-1.273c0.131,-0.456 0.196,-0.88 0.196,-1.272c-0,-0.522 -0.098,-0.815 -0.294,-0.88c-0.196,-0.066 -0.293,-0.49 -0.293,-1.272c-0,-1.697 0.163,-3.262 0.489,-4.697c0.326,-1.436 0.62,-2.871 0.881,-4.306c-0.261,-1.566 -0.392,-2.707 -0.392,-3.425l0,-1.859c-0.13,-0.522 -0.326,-1.109 -0.587,-1.762c-0.261,-0.652 -0.391,-1.304 -0.391,-1.957c-0,-0.522 0.032,-0.913 0.097,-1.174c0.066,-0.261 -0.032,-0.717 -0.293,-1.37c-0.131,-2.218 -0.098,-4.208 0.098,-5.969c0.195,-1.761 0.228,-3.49 0.098,-5.186c-0.392,-1.435 -0.588,-2.577 -0.588,-3.425c0,-0.848 -0.065,-1.598 -0.195,-2.251c-0.131,-0.913 -0.229,-1.892 -0.294,-2.935c-0.065,-1.044 -0.032,-2.153 0.098,-3.327c0,-0.522 0.065,-0.979 0.196,-1.37c0.13,-0.392 0.195,-0.848 0.195,-1.37c0,-0.653 -0.097,-1.24 -0.293,-1.762c-0.196,-0.522 -0.294,-1.109 -0.294,-1.761c0,-1.044 0.098,-2.153 0.294,-3.327c0.196,-1.174 0.293,-2.283 0.293,-3.327c-0.13,-0.391 -0.26,-0.816 -0.391,-1.272c-0.13,-0.457 -0.196,-0.881 -0.196,-1.272c-0.13,-1.305 -0.032,-2.544 0.294,-3.719c0.326,-1.174 0.359,-2.348 0.098,-3.522c-2.61,0.521 -4.697,1.043 -6.263,1.565c-0.522,0.131 -1.011,0.229 -1.468,0.294c-0.456,0.065 -1.011,0.228 -1.663,0.489c-1.044,0.261 -1.892,0.522 -2.544,0.783c-0.653,0.261 -1.37,0.065 -2.153,-0.587c-1.174,-1.044 -1.892,-1.892 -2.153,-2.544c-0.13,-1.044 0.033,-1.892 0.489,-2.545c0.457,-0.652 1.011,-1.304 1.664,-1.957c-0.261,-0.522 -0.261,-0.913 -0,-1.174c0.261,-0.261 0.456,-0.718 0.587,-1.37c0.13,-0.652 0.163,-1.337 0.098,-2.055c-0.065,-0.717 0.032,-1.468 0.293,-2.251c0.261,-0.782 0.587,-1.5 0.979,-2.152c0.391,-0.653 0.652,-1.305 0.783,-1.957c0.13,-0.914 0.065,-1.827 -0.196,-2.74c-0.261,-0.914 -0.261,-1.827 0,-2.74c0.391,-2.218 2.022,-3.066 4.893,-2.544c0.783,0.261 1.5,0.456 2.152,0.587c0.653,0.13 1.11,0.522 1.37,1.174c1.175,-0.131 2.055,-0 2.643,0.391c0.587,0.392 1.402,0.587 2.446,0.587c0.913,-1.174 1.305,-2.739 1.174,-4.697c-0.13,-1.957 -0.13,-4.044 0,-6.262c0.261,-1.174 0.326,-2.022 0.196,-2.544l-0.392,-1.566c-0.261,-1.957 -0.195,-3.784 0.196,-5.48c0.131,-0.391 0.261,-0.815 0.392,-1.272c0.13,-0.457 0.195,-0.881 0.195,-1.272c0,-1.044 -0.195,-1.957 -0.587,-2.74c0,-0.783 -0.098,-1.37 -0.293,-1.761c-0.196,-0.392 -0.392,-0.718 -0.588,-0.979c-0.195,-0.261 -0.358,-0.489 -0.489,-0.685c-0.13,-0.196 -0.13,-0.554 0,-1.076c0.913,-0.914 1.566,-1.338 1.957,-1.272c0.392,0.065 0.914,0.098 1.566,0.098c1.044,-0.261 1.924,-0.457 2.642,-0.588c0.718,-0.13 1.663,-0.065 2.838,0.196c1.174,-0.261 2.087,-0.293 2.74,-0.098c0.652,0.196 1.37,0.359 2.152,0.49c0.522,-0.131 0.979,-0.327 1.37,-0.588c0.392,-0.261 0.783,-0.456 1.175,-0.587c0.391,0.261 0.913,0.294 1.565,0.098c0.653,-0.196 1.109,-0.033 1.37,0.489c0.653,0.914 1.109,1.468 1.37,1.664c0.261,0.196 0.392,0.424 0.392,0.685c0.261,1.044 0.293,2.511 0.097,4.403c-0.195,1.892 -0.358,3.556 -0.489,4.991c0.131,0.652 0.196,1.272 0.196,1.859l-0,1.859c-0,0.392 -0.065,0.914 -0.196,1.566c-0.13,0.652 -0.196,1.109 -0.196,1.37c0.392,1.174 0.555,2.055 0.49,2.642c-0.065,0.587 -0.033,1.011 0.098,1.272c0.13,0.913 0.326,1.729 0.587,2.446c0.261,0.718 -0.066,1.533 -0.979,2.447c0.261,0.783 0.326,1.533 0.196,2.25c-0.131,0.718 -0.261,1.533 -0.392,2.447c0,0.391 0.033,0.848 0.098,1.37c0.066,0.522 0.098,0.978 0.098,1.37c0,0.652 -0.13,1.239 -0.391,1.761c-0.261,0.522 -0.261,1.109 -0,1.761c1.044,0.131 1.957,-0.065 2.74,-0.587c0.783,-0.522 1.565,-0.913 2.348,-1.174c0.783,-0.261 1.598,-0.359 2.447,-0.294c0.848,0.066 1.663,-0.228 2.446,-0.88c0.652,0.522 1.37,0.522 2.153,-0c0.783,-0.522 1.435,-0.392 1.957,0.391c0.652,-0.783 1.761,-1.37 3.327,-1.761c1.565,-0.392 2.87,-0.392 3.914,-0c0.522,1.044 0.913,1.729 1.174,2.055c0.261,0.326 0.457,0.62 0.587,0.88c0.131,0.261 0.131,0.62 0,1.077c-0.13,0.457 -0.13,0.946 0,1.468c0.261,1.043 0.359,1.728 0.294,2.055c-0.065,0.326 -0.098,0.619 -0.098,0.88c0.13,0.914 0.326,1.762 0.587,2.544c0.261,0.783 0.457,1.501 0.587,2.153l0.196,1.37Zm47.166,-8.415c-0.261,1.305 -0.49,2.577 -0.685,3.816c-0.196,1.24 -0.229,2.642 -0.098,4.208c-0,0.652 0.098,1.239 0.293,1.761c0.196,0.522 0.294,1.109 0.294,1.762c-0,0.913 -0.131,1.859 -0.392,2.837c-0.26,0.979 -0.391,1.99 -0.391,3.034l0,2.838c0,0.848 0.065,1.794 0.196,2.837c-0,0.522 0.065,0.881 0.195,1.077c0.131,0.195 0.066,0.554 -0.195,1.076c-0.783,1.827 -0.979,4.175 -0.587,7.046c0.391,2.87 0.587,5.414 0.587,7.632c-0.131,1.305 -0.326,2.61 -0.587,3.914c-0.261,1.305 -0.457,2.675 -0.587,4.11c-0.261,3.001 -0.425,5.969 -0.49,8.905c-0.065,2.936 -0.228,5.839 -0.489,8.709c-0.13,0.783 -0.163,1.598 -0.098,2.446c0.065,0.848 0.033,1.599 -0.098,2.251c-0.13,1.827 -0.293,3.588 -0.489,5.284c-0.196,1.696 -0.424,3.327 -0.685,4.893c-0.13,1.174 -0.13,2.316 0,3.425c0.13,1.109 0.196,2.25 0.196,3.425c-0,0.652 0.032,1.239 0.098,1.761c0.065,0.522 0.097,1.109 0.097,1.761c0.131,0.522 0.261,1.011 0.392,1.468c0.13,0.457 0.196,1.011 0.196,1.664c-0.131,0.521 -0.196,0.946 -0.196,1.272l-0,0.88c-0,0.261 0.065,0.457 0.196,0.588c-0.261,1.043 -0.327,1.728 -0.196,2.054c0.13,0.327 0.196,0.62 0.196,0.881c-0.131,0.392 -0.294,0.816 -0.49,1.272c-0.195,0.457 -0.293,1.011 -0.293,1.664c-0,1.044 0.098,2.055 0.293,3.033c0.196,0.979 0.163,1.99 -0.098,3.034c-0.913,0.391 -1.761,0.815 -2.544,1.272c-0.783,0.456 -1.892,0.489 -3.327,0.098c-0.652,-0.261 -1.044,-0.783 -1.174,-1.566c-0.131,-0.783 -0.457,-1.435 -0.979,-1.957c-1.043,-0.131 -1.924,-0.326 -2.642,-0.587c-0.717,-0.261 -1.402,-0.587 -2.055,-0.979c-0.521,0.261 -1.206,0.294 -2.055,0.098c-0.848,-0.196 -1.728,-0.359 -2.642,-0.489c-1.043,-0.261 -2.022,-0.392 -2.935,-0.392c-0.913,0 -1.631,-0.13 -2.153,-0.391c-0.783,-1.044 -1.207,-1.99 -1.272,-2.838c-0.065,-0.848 -0.359,-1.468 -0.881,-1.859c0.522,-1.174 0.848,-2.218 0.979,-3.131c0.261,-1.305 0.261,-2.512 -0,-3.621c-0.261,-1.109 -0.326,-2.316 -0.196,-3.621c0,-0.391 0.131,-1.109 0.391,-2.152c0.131,-0.914 0.196,-1.696 0.196,-2.349c0,-0.652 0.065,-1.305 0.196,-1.957c0.13,-1.044 0.261,-1.663 0.391,-1.859c0.131,-0.196 0.261,-0.424 0.392,-0.685c0.13,-2.218 0.228,-4.501 0.293,-6.85c0.066,-2.348 0.163,-4.044 0.294,-5.088c-0,-0.653 0.032,-1.142 0.098,-1.468c0.065,-0.326 0.098,-0.816 0.098,-1.468c-0,-2.609 0.097,-4.86 0.293,-6.752c0.196,-1.892 0.228,-3.881 0.098,-5.969c-0.13,-1.435 -0.098,-2.74 0.098,-3.914c0.196,-1.174 0.293,-2.349 0.293,-3.523c0.131,-1.435 0.098,-2.707 -0.097,-3.816c-0.196,-1.109 0.032,-2.251 0.685,-3.425c-0.522,-1.305 -0.685,-2.609 -0.49,-3.914c0.196,-1.305 0.294,-2.544 0.294,-3.719l-0,-2.935c-0,-0.914 0.065,-1.892 0.196,-2.936c-0,-0.652 -0.066,-1.337 -0.196,-2.055c-0.131,-0.717 -0.065,-1.402 0.196,-2.055c0.13,-1.435 0.228,-2.446 0.293,-3.033c0.065,-0.587 0.098,-1.011 0.098,-1.272c-0,-0.522 -0.098,-0.979 -0.294,-1.37c-0.195,-0.392 -0.293,-0.783 -0.293,-1.174c-0,-0.522 0.032,-0.979 0.098,-1.37c0.065,-0.392 0.032,-0.783 -0.098,-1.175c-0.261,-1.565 -0.424,-2.642 -0.489,-3.229c-0.066,-0.587 -0.033,-1.076 0.097,-1.468c-0.13,-0.652 -0.521,-1.043 -1.174,-1.174c-0.652,-0.13 -1.109,-0.457 -1.37,-0.978c-0.261,-1.044 -0.522,-2.186 -0.783,-3.425c-0.261,-1.24 0.066,-2.186 0.979,-2.838c0.652,-0.261 1.272,-0.359 1.859,-0.294c0.587,0.066 1.337,0.163 2.251,0.294c0.783,0.261 1.304,0.326 1.565,0.196c0.261,-0.131 0.522,-0.131 0.783,-0c0.392,0.13 0.816,0.293 1.272,0.489c0.457,0.196 0.946,0.359 1.468,0.489c1.305,0.131 2.805,0.131 4.501,0c1.697,-0.13 3.36,-0.293 4.991,-0.489c1.631,-0.196 3.099,-0.326 4.403,-0.392c1.305,-0.065 2.218,0.098 2.74,0.49c0.392,0.261 0.587,0.619 0.587,1.076c0,0.457 0.196,0.75 0.588,0.881Zm63.018,110.575c-0,1.305 -0.718,1.826 -2.153,1.565c-0.261,0.261 -0.326,0.685 -0.196,1.273c0.131,0.587 -0.13,1.011 -0.783,1.272c-1.044,0.391 -2.185,0.456 -3.425,0.195c-1.239,-0.261 -2.185,-0.652 -2.837,-1.174c-3.132,-0.652 -6.394,-0.75 -9.786,-0.293c-3.392,0.456 -6.719,0.489 -9.981,0.097c-0.913,-0.913 -1.337,-1.206 -1.272,-0.88c0.065,0.326 -0.228,0.424 -0.881,0.293c-0.783,-0.652 -1.239,-1.37 -1.37,-2.153c-0.13,-0.782 -0.195,-1.63 -0.195,-2.544l-0,-3.522c0.13,-1.044 0.195,-2.055 0.195,-3.034l0,-3.229c0,-2.218 -0.13,-4.828 -0.391,-7.828c-0.261,-3.001 0.196,-5.545 1.37,-7.633c-0.652,-0.783 -0.816,-1.761 -0.489,-2.936c0.326,-1.174 0.554,-2.348 0.685,-3.522c-0,-0.653 -0.098,-1.403 -0.294,-2.251c-0.196,-0.848 0.033,-1.598 0.685,-2.251c-0.652,-0.652 -0.881,-1.435 -0.685,-2.348c0.196,-0.913 0.359,-1.892 0.489,-2.936c0,-0.522 -0.065,-1.011 -0.195,-1.468c-0.131,-0.456 0.065,-0.88 0.587,-1.272c-0.131,-1.043 -0.359,-2.022 -0.685,-2.935c-0.326,-0.914 -0.359,-2.088 -0.098,-3.523c-0,-0.391 0.032,-0.75 0.098,-1.076c0.065,-0.327 0.032,-0.816 -0.098,-1.468c-0.261,-0.914 -0.359,-1.566 -0.294,-1.957c0.066,-0.392 0.098,-0.718 0.098,-0.979c0,-0.652 -0.065,-1.305 -0.196,-1.957c-0.13,-0.652 -0.195,-1.435 -0.195,-2.348c0.261,-1.044 0.391,-1.762 0.391,-2.153c0,-0.653 -0.098,-1.272 -0.293,-1.859c-0.196,-0.588 -0.359,-1.207 -0.49,-1.86c0.131,-2.087 0.098,-3.783 -0.098,-5.088c-0.195,-1.305 -0.424,-2.74 -0.685,-4.306c-0.13,-0.913 -0.26,-1.989 -0.391,-3.229c-0.13,-1.239 -0.13,-2.511 0,-3.816c0.131,-1.435 0.098,-2.512 -0.098,-3.229c-0.195,-0.718 -0.359,-1.468 -0.489,-2.251c-0.131,-0.652 -0.196,-1.305 -0.196,-1.957l0,-1.957c-0.261,-1.174 -0.326,-1.99 -0.195,-2.446c0.13,-0.457 0.195,-0.816 0.195,-1.077c0,-0.652 -0.098,-1.435 -0.293,-2.348c-0.196,-0.914 -0.359,-1.892 -0.49,-2.936c-0.261,-1.305 -0.391,-2.675 -0.391,-4.11l-0,-4.305c-0.13,-0.522 -0.196,-1.012 -0.196,-1.468c0,-0.457 -0.065,-0.881 -0.195,-1.272c0.261,-0.783 0.261,-1.305 -0,-1.566c-0.261,-0.261 -0.392,-0.522 -0.392,-0.783c0.261,-0.913 0.326,-1.533 0.196,-1.859c-0.131,-0.326 -0.196,-0.62 -0.196,-0.881c0.261,-1.304 0.294,-2.218 0.098,-2.74c-0.196,-0.522 -0.294,-0.978 -0.294,-1.37c0,-0.782 0.066,-1.598 0.196,-2.446c0.131,-0.848 0,-1.664 -0.391,-2.446c0.783,-0.522 1.044,-1.207 0.783,-2.055c-0.261,-0.848 -0.392,-1.599 -0.392,-2.251c0,-0.783 0.196,-1.533 0.587,-2.251c0.392,-0.717 0.392,-1.402 0,-2.054c0.392,-0.261 0.653,-0.653 0.783,-1.175c0.131,-0.522 0.326,-0.978 0.587,-1.37c-0.261,-1.043 -0.13,-2.316 0.392,-3.816c0.522,-1.5 0.978,-2.903 1.37,-4.208c0.13,-0.652 0.032,-1.076 -0.294,-1.272c-0.326,-0.196 -0.62,-0.424 -0.881,-0.685l0.783,-3.131c0.261,-1.044 0.848,-1.761 1.762,-2.153c2.609,0.392 5.023,0.62 7.241,0.685c2.218,0.065 4.436,0.163 6.654,0.294c0.652,-0.261 1.207,-0.555 1.663,-0.881c0.457,-0.326 1.012,-0.555 1.664,-0.685c0.652,-0 1.5,0.294 2.544,0.881c1.044,0.587 1.892,1.011 2.544,1.272c0.392,0.522 0.685,1.141 0.881,1.859c0.196,0.718 0.424,1.403 0.685,2.055c-0,0.652 -0.261,1.011 -0.783,1.076c-0.522,0.066 -0.913,0.359 -1.174,0.881l-0,2.544c-0.261,1.435 -0.261,2.447 -0,3.034c0.261,0.587 0.391,1.076 0.391,1.467c0.131,0.914 0.098,1.762 -0.098,2.545c-0.195,0.783 -0.293,1.631 -0.293,2.544c-0,0.391 0.065,0.815 0.196,1.272c0.13,0.457 0.261,0.946 0.391,1.468c-0.13,0.391 -0.13,0.783 -0,1.174c0.13,0.391 0.261,0.718 0.391,0.979c0,1.304 -0.097,2.576 -0.293,3.816c-0.196,1.239 -0.294,2.446 -0.294,3.62c0.261,1.305 0.294,2.219 0.098,2.74c-0.196,0.522 -0.228,0.914 -0.098,1.175c0.392,1.435 0.685,2.381 0.881,2.837c0.196,0.457 0.294,0.816 0.294,1.077c-0.131,1.435 -0.131,2.577 -0,3.425c0.13,0.848 0.26,1.598 0.391,2.25c0.261,1.827 0.391,3.621 0.391,5.382c0,1.762 0.327,3.49 0.979,5.187c-0.522,1.043 -0.62,2.087 -0.294,3.131c0.327,1.044 0.49,2.218 0.49,3.523c-0,0.913 -0.066,1.761 -0.196,2.544c-0.131,0.783 -0.196,1.696 -0.196,2.74c0.261,0.522 0.229,1.076 -0.098,1.663c-0.326,0.587 -0.554,1.207 -0.685,1.859c0,1.566 0.131,3.132 0.392,4.697c0.261,1.566 0.391,3.132 0.391,4.697c0,1.697 -0.065,3.523 -0.196,5.48c-0.13,1.957 -0.13,3.784 0,5.48c-0.26,1.044 -0.326,1.794 -0.195,2.251c0.13,0.456 0.195,0.88 0.195,1.272c-0.13,1.044 -0.293,1.957 -0.489,2.74c-0.195,0.783 -0.293,1.631 -0.293,2.544c-0.131,0.652 -0.131,1.337 -0,2.055c0.13,0.718 0.195,1.468 0.195,2.251c0,0.782 -0.032,1.565 -0.097,2.348c-0.066,0.783 -0.098,1.566 -0.098,2.349c0.13,1.826 0.293,3.588 0.489,5.284c0.196,1.696 0.293,3.457 0.293,5.284c0,1.435 -0.097,2.838 -0.293,4.207c-0.196,1.37 -0.163,2.773 0.098,4.208c0.13,0.914 0.261,1.859 0.391,2.838c0.131,0.979 0.261,1.99 0.392,3.033c0.13,0.522 0.261,1.012 0.391,1.468c0.13,0.457 0.196,0.946 0.196,1.468c0.13,2.218 -0.066,4.436 -0.587,6.654c-0.522,2.218 -0.392,4.436 0.391,6.654c0.522,0.653 1.337,1.044 2.446,1.174c1.109,0.131 1.99,0.522 2.642,1.175l0.588,1.957Zm118.011,-54.798c0.131,2.87 0.229,5.382 0.294,7.534c0.065,2.153 -0.098,4.143 -0.489,5.969c-0.392,1.436 -0.587,2.447 -0.587,3.034c-0,0.587 -0.066,1.076 -0.196,1.468c-0.522,2.087 -0.75,3.783 -0.685,5.088c0.065,1.305 0.033,2.479 -0.098,3.523c-0.13,1.044 -0.293,2.12 -0.489,3.229c-0.196,1.109 -0.294,2.185 -0.294,3.229c0,0.653 0.033,1.24 0.098,1.762c0.065,0.521 0.098,1.109 0.098,1.761c0.13,1.696 -0,3.327 -0.391,4.893c-0.392,1.565 -0.457,3.066 -0.196,4.501c0.261,1.044 0.717,2.022 1.37,2.936c0.652,0.913 0.848,1.891 0.587,2.935c-0.261,0.913 -1.044,1.729 -2.349,2.447c-1.304,0.717 -2.674,1.076 -4.109,1.076c-0.261,-0 -0.555,-0.033 -0.881,-0.098c-0.326,-0.065 -0.75,-0.163 -1.272,-0.294c-3.001,0.131 -5.741,-0.163 -8.22,-0.88c-2.479,-0.718 -4.893,-1.403 -7.241,-2.055c-0.392,-0.652 -0.816,-1.24 -1.272,-1.761c-0.457,-0.522 -0.946,-1.044 -1.468,-1.566c0.13,-1.174 0.098,-2.316 -0.098,-3.425c-0.196,-1.109 -0.098,-2.446 0.294,-4.012c0.782,-2.218 0.978,-3.653 0.587,-4.306c-0,-0.522 0.195,-1.239 0.587,-2.152c0.391,-0.914 0.783,-1.501 1.174,-1.762c-0.783,-0.913 -0.913,-1.892 -0.391,-2.935c0.522,-1.044 0.783,-2.023 0.783,-2.936c0.13,-0.913 0.13,-1.696 -0,-2.349c-0.131,-0.652 -0.066,-1.5 0.195,-2.544c0.261,-1.044 0.392,-1.728 0.392,-2.055l-0,-0.88c0.261,-1.696 0.424,-2.969 0.489,-3.817c0.065,-0.848 0.163,-1.598 0.293,-2.25c0,-0.522 0.098,-0.979 0.294,-1.37c0.196,-0.392 0.294,-0.783 0.294,-1.175c-0.131,-1.696 -0.066,-3.033 0.195,-4.012c0.261,-0.978 0.131,-1.859 -0.391,-2.642c0.391,-0.391 0.587,-0.945 0.587,-1.663c0,-0.718 0.131,-1.403 0.391,-2.055c0.261,-0.391 0.49,-0.946 0.685,-1.664c0.196,-0.717 0.294,-1.402 0.294,-2.054c-0,-2.74 0.065,-5.285 0.196,-7.633c0.13,-2.349 0.065,-4.567 -0.196,-6.654c-0,-0.522 -0.098,-1.011 -0.294,-1.468c-0.195,-0.457 -0.358,-0.946 -0.489,-1.468c-0.13,-1.044 -0.13,-1.696 0,-1.957c0.131,-0.261 0.131,-0.522 0,-0.783c0,-0.391 -0.065,-0.848 -0.196,-1.37c-0.13,-0.522 -0.195,-0.978 -0.195,-1.37c-0.131,-0.521 -0.196,-1.076 -0.196,-1.663c0,-0.587 -0.065,-1.077 -0.196,-1.468c-0.13,-0.652 -0.358,-1.207 -0.685,-1.663c-0.326,-0.457 -0.554,-0.946 -0.685,-1.468c-0.261,-0.783 -0.358,-1.468 -0.293,-2.055c0.065,-0.587 -0.033,-1.207 -0.294,-1.859c-0.261,-0.261 -0.587,-0.522 -0.978,-0.783c-0.392,-0.261 -0.783,-0.587 -1.175,-0.979c-0.391,-0.261 -0.717,-0.522 -0.978,-0.783c-0.261,-0.261 -0.587,-0.521 -0.979,-0.782c-1.043,-0.783 -1.989,-1.533 -2.837,-2.251c-0.848,-0.718 -2.251,-0.946 -4.208,-0.685c-2.218,0.391 -4.077,0.62 -5.578,0.685c-1.5,0.065 -2.968,0.163 -4.403,0.293c-2.349,0.131 -4.241,0.392 -5.676,0.783c-1.826,0.522 -3.033,1.077 -3.62,1.664l-1.86,1.859c-0.391,0.261 -0.75,0.522 -1.076,0.783c-0.326,0.261 -0.62,0.522 -0.881,0.783c-0.391,0.261 -0.717,0.554 -0.978,0.88c-0.261,0.327 -0.587,0.555 -0.979,0.685c-0.261,0.522 -0.489,1.077 -0.685,1.664c-0.195,0.587 -0.619,0.881 -1.272,0.881c-0.261,1.435 -0.717,2.707 -1.37,3.816c-0.652,1.109 -1.239,2.185 -1.761,3.229c-0.652,1.435 -1.142,2.544 -1.468,3.327c-0.326,0.783 -0.62,1.501 -0.881,2.153c-0.261,0.652 -0.489,1.533 -0.685,2.642c-0.195,1.109 -0.424,2.185 -0.685,3.229c-0.521,1.957 -0.815,3.425 -0.88,4.404c-0.066,0.978 -0.424,1.794 -1.077,2.446c0.392,3.914 0.327,7.372 -0.195,10.372c-0.261,1.044 -0.49,2.088 -0.685,3.132c-0.196,1.044 -0.359,2.022 -0.49,2.935c-0.261,1.436 -0.456,2.969 -0.587,4.6c-0.13,1.63 -0.065,3.033 0.196,4.207c0.13,1.305 0.13,2.675 -0,4.11c-0.131,1.435 -0.522,2.87 -1.174,4.306c0.261,0.391 0.391,0.946 0.391,1.663c0,0.718 0.131,1.338 0.392,1.859c0.26,0.783 0.13,1.24 -0.392,1.37c-0.522,0.131 -0.717,0.522 -0.587,1.175c0.261,0.261 0.359,0.619 0.294,1.076c-0.066,0.457 0.163,0.75 0.685,0.881c0.391,0.652 0.554,1.37 0.489,2.152c-0.065,0.783 0.032,1.697 0.293,2.74c0.783,2.349 0.979,4.045 0.588,5.089c0.26,0.913 0.75,1.696 1.467,2.348c0.718,0.653 1.077,1.435 1.077,2.349c-0,0.391 -0.163,0.815 -0.49,1.272c-0.326,0.457 -0.489,0.946 -0.489,1.468c-0.261,0.13 -0.652,0.359 -1.174,0.685c-0.522,0.326 -0.979,0.554 -1.37,0.685c-0.522,-0 -1.011,-0.098 -1.468,-0.294c-0.456,-0.196 -1.011,-0.359 -1.663,-0.489c-1.044,-0.261 -2.088,-0.392 -3.132,-0.392c-1.435,0 -2.805,0.098 -4.11,0.294c-1.304,0.196 -2.609,0.359 -3.914,0.489c-0.913,0 -1.924,-0.032 -3.033,-0.098c-1.109,-0.065 -2.186,0.033 -3.229,0.294c-0.392,-0.391 -0.685,-0.848 -0.881,-1.37c-0.196,-0.522 -0.62,-0.913 -1.272,-1.174c0.261,-2.349 0.359,-4.534 0.293,-6.556c-0.065,-2.023 0.229,-3.817 0.881,-5.382c-0.522,-1.305 -0.652,-2.382 -0.391,-3.23c0.261,-0.848 0.326,-1.794 0.195,-2.837c-0.261,-1.044 -0.391,-1.794 -0.391,-2.251l-0,-1.076c-0.131,-0.653 -0.261,-1.175 -0.391,-1.566c-0.131,-0.391 -0.196,-0.848 -0.196,-1.37c-0.261,-2.218 -0.326,-4.664 -0.196,-7.339c0.131,-2.675 0.196,-5.643 0.196,-8.905c0.13,-1.174 0.032,-2.087 -0.294,-2.74c-0.326,-0.652 -0.489,-1.304 -0.489,-1.957c0.261,-1.435 0.294,-2.446 0.098,-3.033c-0.196,-0.587 -0.294,-1.142 -0.294,-1.664c0,-0.913 0.066,-1.794 0.196,-2.642c0.13,-0.848 0.196,-1.729 0.196,-2.642l-0,-1.076c-0,-0.457 0.13,-1.011 0.391,-1.664c0.131,-1.174 0.228,-2.446 0.294,-3.816c0.065,-1.37 0.098,-2.773 0.098,-4.208c-0,-1.044 -0.033,-2.022 -0.098,-2.935c-0.066,-0.914 0.032,-2.153 0.293,-3.719c0,-0.783 0.065,-1.729 0.196,-2.838c0.13,-1.109 0.228,-2.25 0.294,-3.425c0.065,-1.174 0.163,-2.315 0.293,-3.424c0.131,-1.109 0.261,-1.99 0.392,-2.642c0.26,-1.044 0.358,-2.382 0.293,-4.013c-0.065,-1.63 -0.098,-3.229 -0.098,-4.794l0,-2.74c0.131,-1.305 0.131,-2.512 0,-3.621c-0.13,-1.109 -0.195,-2.185 -0.195,-3.229c-0,-0.391 0.065,-0.815 0.195,-1.272c0.131,-0.457 0.196,-0.946 0.196,-1.468c-0,-0.783 -0.098,-1.566 -0.294,-2.348c-0.195,-0.783 -0.358,-1.566 -0.489,-2.349c0,-0.522 0.033,-1.011 0.098,-1.468c0.065,-0.456 0.033,-0.946 -0.098,-1.468c0,-0.521 -0.065,-0.978 -0.196,-1.37c-0.13,-0.391 -0.261,-0.717 -0.391,-0.978c-0.131,-1.696 -0.131,-3.425 -0,-5.186c0.13,-1.762 -0.261,-3.36 -1.174,-4.795c0.261,-2.349 0.359,-4.665 0.293,-6.948c-0.065,-2.283 0.033,-4.664 0.294,-7.143c0.13,-1.827 0.228,-3.719 0.293,-5.676c0.066,-1.957 0.098,-3.979 0.098,-6.067c1.175,-1.043 2.577,-1.565 4.208,-1.565c1.631,-0 3.36,-0.066 5.186,-0.196c0.914,-0.13 1.762,-0.261 2.544,-0.391c0.783,-0.131 1.566,-0.196 2.349,-0.196c0.913,0.261 2.055,0.293 3.425,0.098c1.37,-0.196 2.185,-0.163 2.446,0.098c0.783,-0.261 1.174,-0.098 1.174,0.489c0,0.587 0.327,0.881 0.979,0.881c0.391,1.435 0.75,2.739 1.076,3.914c0.327,1.174 0.359,2.348 0.098,3.522c-0.391,0.914 -0.554,1.436 -0.489,1.566c0.065,0.131 0.098,0.326 0.098,0.587c-0.261,1.305 -0.522,3.197 -0.783,5.676c-0.261,2.479 -0.457,4.632 -0.587,6.458c-0,1.957 -0.033,3.914 -0.098,5.871c-0.065,1.957 -0.098,3.523 -0.098,4.697c0,1.957 -0.098,3.98 -0.293,6.067c-0.196,2.088 -0.164,4.11 0.097,6.067c0.131,0.653 0.261,1.24 0.392,1.762c0.13,0.522 0.065,1.174 -0.196,1.957c-0.13,0.391 -0.326,0.913 -0.587,1.565c-0.261,0.653 -0.261,1.305 0,1.957c0.652,0.261 1.174,0 1.566,-0.782c0.391,-0.783 0.913,-1.501 1.565,-2.153c1.044,-0.522 1.827,-1.109 2.349,-1.762c0.522,-0.652 0.978,-1.109 1.37,-1.369c0.913,-0.522 1.533,-0.946 1.859,-1.273c0.326,-0.326 0.685,-0.619 1.076,-0.88c0.522,-0.261 1.142,-0.587 1.86,-0.979c0.717,-0.391 1.206,-0.717 1.467,-0.978l1.566,-1.566c0.913,-0.261 1.468,-0.424 1.664,-0.489c0.195,-0.066 0.424,-0.163 0.685,-0.294c1.043,-0.522 2.152,-0.946 3.327,-1.272c1.174,-0.326 2.479,-0.685 3.914,-1.076c1.044,-0.392 1.924,-0.62 2.642,-0.685c0.717,-0.066 1.468,-0.229 2.25,-0.49c0.783,-0.13 1.631,-0.261 2.545,-0.391c0.913,-0.13 1.761,-0.261 2.544,-0.391c0.783,-0 1.696,0.065 2.74,0.195c1.044,0.131 2.087,0.196 3.131,0.196c1.435,0.13 2.936,0.196 4.501,0.196c1.566,-0 3.067,0.13 4.502,0.391c0.261,0.131 0.587,0.261 0.978,0.392l1.174,0.391c1.044,0.13 2.088,0.457 3.132,0.978c0.783,0.522 1.533,1.207 2.25,2.055c0.718,0.848 1.403,1.729 2.055,2.642c0.653,0.653 1.044,1.142 1.175,1.468c0.13,0.326 0.195,0.555 0.195,0.685c0.653,0.783 1.109,1.533 1.37,2.251c0.261,0.717 0.848,1.142 1.762,1.272c0.261,0.652 0.587,1.174 0.978,1.566c0.392,0.391 0.783,0.913 1.174,1.565c0.261,0.653 0.49,1.305 0.685,1.957c0.196,0.653 0.424,1.305 0.685,1.957l1.566,3.915c0.131,0.391 0.163,0.815 0.098,1.272c-0.065,0.456 -0.033,0.88 0.098,1.272c0.652,1.435 1.174,2.577 1.565,3.425c0.392,0.848 0.718,1.598 0.979,2.25c-0,0.914 0.065,1.501 0.196,1.762c0.13,0.261 0.261,0.391 0.391,0.391c0.131,0.261 0.196,0.62 0.196,1.077c-0,0.456 0.065,0.815 0.196,1.076c0.26,1.435 0.619,2.903 1.076,4.403c0.457,1.501 0.75,2.969 0.881,4.404c0.261,1.565 0.261,3.131 -0,4.697c-0.261,1.565 -0.327,3.196 -0.196,4.893c0.13,0.652 0.293,1.239 0.489,1.761c0.196,0.522 0.294,1.109 0.294,1.761c-0.261,0.783 -0.261,2.12 -0,4.012c0.261,1.892 0.326,3.164 0.195,3.817Zm134.452,-57.734c-0,0.391 -0.163,0.913 -0.489,1.565c-0.327,0.653 -0.49,1.24 -0.49,1.762c0.131,0.913 0.163,1.5 0.098,1.761c-0.065,0.261 -0.098,0.522 -0.098,0.783c0.131,0.652 0.131,1.109 0,1.37c-0.13,0.261 -0.13,0.522 0,0.783c0.131,0.783 0.098,1.37 -0.098,1.761c-0.195,0.392 -0.293,0.718 -0.293,0.979c-0.131,0.391 -0.131,0.815 -0,1.272c0.13,0.456 0.196,0.88 0.196,1.272c-0.261,1.044 -0.424,1.859 -0.49,2.446c-0.065,0.587 -0.163,1.011 -0.293,1.272c-0,0.653 -0.033,1.37 -0.098,2.153c-0.065,0.783 -0.033,1.631 0.098,2.544c-0,0.261 0.098,0.587 0.293,0.979c0.196,0.391 0.294,0.783 0.294,1.174c0.13,1.435 0.098,2.936 -0.098,4.501c-0.196,1.566 -0.228,3.066 -0.098,4.502c0,0.652 0.065,1.239 0.196,1.761c0.13,0.522 0.13,1.109 -0,1.761c-0,0.914 -0.131,1.762 -0.392,2.545c-0.261,0.782 -0.456,1.696 -0.587,2.74c0.131,0.782 0.131,1.663 0,2.642c-0.13,0.978 0,1.794 0.392,2.446c-0.261,0.913 -0.587,1.696 -0.979,2.348c0.261,1.827 0.229,3.588 -0.098,5.285c-0.326,1.696 -0.489,3.457 -0.489,5.284c0.131,0.652 0.261,1.272 0.391,1.859c0.131,0.587 0.196,1.207 0.196,1.859c0,0.261 -0.065,0.587 -0.196,0.979c-0.13,0.391 -0.195,0.782 -0.195,1.174c0.261,1.174 0.293,2.022 0.098,2.544c-0.196,0.522 -0.359,0.913 -0.49,1.174c-0.13,1.436 -0.195,2.577 -0.195,3.425c-0,0.848 -0.327,1.794 -0.979,2.838c-0.391,0.652 -0.457,1.664 -0.196,3.033c0.261,1.37 0.066,2.512 -0.587,3.425c0.261,0.783 0.359,1.501 0.294,2.153c-0.065,0.652 -0.098,1.501 -0.098,2.544c0.13,1.827 0.098,3.099 -0.098,3.817c-0.196,0.717 -0.293,1.402 -0.293,2.055c-0.131,1.565 -0.066,3.033 0.195,4.403c0.261,1.37 0.457,2.707 0.587,4.012c-0.521,1.305 -0.391,2.414 0.392,3.327c0.783,0.913 1.174,1.892 1.174,2.936c-0.261,0.652 -0.457,1.207 -0.587,1.663c-0.131,0.457 -0.196,0.75 -0.196,0.881c-0.652,0.261 -1.239,0.554 -1.761,0.881c-0.522,0.326 -1.044,0.554 -1.566,0.685c-0.391,-0 -0.783,-0.066 -1.174,-0.196c-0.391,-0.131 -0.848,-0.196 -1.37,-0.196c-0.522,-0.13 -1.142,-0.098 -1.859,0.098c-0.718,0.196 -1.403,0.294 -2.055,0.294c-0.653,0.13 -1.403,0.163 -2.251,0.097c-0.848,-0.065 -1.598,0.033 -2.25,0.294c-0.783,0.13 -1.533,0.391 -2.251,0.783c-0.718,0.391 -1.403,0.587 -2.055,0.587c-0.913,0.913 -1.696,1.337 -2.349,1.272c-0.652,-0.065 -1.109,-0.033 -1.369,0.098c-0.783,-0.652 -1.436,-1.696 -1.958,-3.131c-0.521,-1.436 -0.391,-2.545 0.392,-3.327c-0.652,-1.697 -0.783,-3.588 -0.392,-5.676c0.392,-2.088 0.392,-4.175 0,-6.263c-1.043,0.392 -1.989,0.914 -2.837,1.566c-0.848,0.652 -1.664,1.37 -2.447,2.153c-0.391,0.261 -0.717,0.62 -0.978,1.076c-0.261,0.457 -0.653,0.816 -1.174,1.077c-0.522,0.261 -1.109,0.521 -1.762,0.782c-0.652,0.261 -1.109,0.588 -1.37,0.979c-0.652,0.261 -1.337,0.391 -2.055,0.391c-0.717,0 -1.402,0.131 -2.055,0.392c-0.913,0.261 -1.826,0.489 -2.74,0.685c-0.913,0.195 -1.957,0.424 -3.131,0.685c-0.783,0.261 -1.826,0.587 -3.131,0.978c-1.305,0.392 -2.675,0.457 -4.11,0.196c-1.044,-0.261 -1.729,-0.294 -2.055,-0.098c-0.326,0.196 -0.685,0.294 -1.076,0.294c-1.044,0.261 -2.153,0.13 -3.327,-0.392c-0.261,0.522 -0.881,0.653 -1.86,0.392c-0.978,-0.261 -1.728,-0.522 -2.25,-0.783c-1.044,0.391 -2.023,0.456 -2.936,0.196c-0.913,-0.261 -1.892,-0.457 -2.936,-0.588c-0.652,0 -1.011,-0.195 -1.076,-0.587c-0.065,-0.391 -0.359,-0.652 -0.881,-0.783c-2.87,0.131 -5.936,-0.195 -9.198,-0.978c-0.261,-0.522 -0.62,-0.913 -1.076,-1.174c-0.457,-0.261 -0.751,-0.718 -0.881,-1.37c-0.652,0.13 -1.076,-0 -1.272,-0.392c-0.196,-0.391 -0.62,-0.587 -1.272,-0.587c-0.261,-0.652 -0.62,-1.141 -1.077,-1.468c-0.456,-0.326 -0.815,-0.685 -1.076,-1.076c-0.652,-0 -1.142,-0.13 -1.468,-0.391c-0.326,-0.261 -0.815,-0.392 -1.468,-0.392c-0.782,-1.044 -1.239,-1.631 -1.37,-1.761l-0.391,-0.392c-0.652,-0.522 -1.142,-0.782 -1.468,-0.782c-0.326,-0 -0.554,-0.066 -0.685,-0.196l-1.565,-1.566c-0.392,-0.391 -0.783,-0.848 -1.175,-1.37c-0.782,-1.044 -1.435,-1.729 -1.957,-2.055c-0.522,-0.326 -0.717,-0.946 -0.587,-1.859c-1.174,-0.783 -1.924,-1.337 -2.251,-1.663c-0.326,-0.327 -0.619,-0.685 -0.88,-1.077c-0.522,-0.652 -0.848,-1.305 -0.979,-1.957c-0.13,-0.652 -0.456,-1.109 -0.978,-1.37c-0.914,-1.435 -1.631,-2.577 -2.153,-3.425c-0.522,-0.848 -1.24,-1.402 -2.153,-1.663c0.261,-0.653 0.261,-1.044 0,-1.175c-0.261,-0.13 -0.326,-0.456 -0.196,-0.978c-1.043,-0.913 -1.826,-2.022 -2.348,-3.327c-0.522,-1.305 -0.979,-2.707 -1.37,-4.208c-0.391,-1.5 -0.718,-3.001 -0.979,-4.501c-0.26,-1.501 -0.652,-2.968 -1.174,-4.404c0.131,-1.826 0.196,-3.751 0.196,-5.773c-0,-2.022 0.326,-3.816 0.978,-5.382c0.392,-0.913 0.588,-1.696 0.588,-2.348c-0,-0.653 0.065,-1.305 0.195,-1.957c0.131,-0.653 0.229,-1.273 0.294,-1.86c0.065,-0.587 0.163,-1.207 0.293,-1.859c0.392,-2.087 0.751,-3.653 1.077,-4.697c0.326,-1.044 0.815,-1.957 1.468,-2.74c-0.261,-0.913 -0.261,-1.729 -0,-2.446c0.261,-0.718 0.587,-1.37 0.978,-1.957c0.392,-0.587 0.783,-1.207 1.174,-1.859c0.392,-0.653 0.588,-1.37 0.588,-2.153c0.652,-0.522 1.141,-1.142 1.467,-1.86c0.327,-0.717 0.751,-1.402 1.272,-2.054c0.261,-0.522 0.588,-1.109 0.979,-1.762l1.174,-1.957c0.261,-0.391 0.62,-0.783 1.077,-1.174c0.456,-0.392 0.619,-0.913 0.489,-1.566c0.391,-0.261 0.717,-0.522 0.978,-0.783c0.261,-0.261 0.718,-0.522 1.37,-0.782c1.044,-1.566 1.892,-2.969 2.545,-4.208c0.652,-1.24 1.435,-2.381 2.348,-3.425c0.522,-0.522 1.011,-0.946 1.468,-1.272c0.457,-0.326 0.946,-0.685 1.468,-1.077c0.261,-0.652 0.75,-1.076 1.468,-1.272c0.717,-0.195 1.141,-0.619 1.272,-1.272c1.304,-0.261 2.609,-0.554 3.914,-0.88c1.304,-0.327 2.479,-0.881 3.523,-1.664c0.782,-0.13 1.598,-0.228 2.446,-0.294c0.848,-0.065 1.598,-0.358 2.251,-0.88c1.304,0.261 2.348,0.163 3.131,-0.294c0.783,-0.456 1.5,-0.946 2.153,-1.468c2.087,0 4.077,-0.032 5.969,-0.097c1.892,-0.066 3.946,-0.033 6.165,0.097c1.043,0 2.054,-0.065 3.033,-0.195c0.979,-0.131 1.859,-0.131 2.642,-0l1.761,-0c0.522,-0 0.979,0.195 1.37,0.587c1.175,-0.522 2.284,-0.457 3.327,0.196c0.261,0.13 0.588,0.163 0.979,0.097c0.391,-0.065 0.913,0.033 1.566,0.294c1.304,0.391 2.185,0.587 2.642,0.587l1.076,0l1.957,0.979c0.261,0.13 0.718,0.456 1.37,0.978c1.696,1.044 3.034,1.794 4.012,2.251c0.979,0.456 1.925,1.011 2.838,1.663c0.652,0.783 1.109,1.24 1.37,1.37c0.261,0.131 0.522,0.326 0.783,0.587c0.261,0.261 0.522,0.555 0.782,0.881c0.261,0.326 0.588,0.685 0.979,1.076c0.261,0.522 0.652,0.979 1.174,1.37c0.522,0.392 1.044,0.848 1.566,1.37c0.261,0.261 0.489,0.587 0.685,0.979c0.196,0.391 0.489,0.718 0.881,0.978c0.261,0.261 0.685,0.62 1.272,1.077c0.587,0.456 0.88,1.011 0.88,1.663c0.522,-1.826 0.653,-3.751 0.392,-5.773c-0.261,-2.022 -0.653,-3.751 -1.174,-5.186c-0.392,-0.783 -0.783,-1.403 -1.175,-1.86c-0.391,-0.456 -0.391,-1.272 0,-2.446c0.131,-0.522 0.424,-1.109 0.881,-1.761c0.457,-0.653 0.815,-1.109 1.076,-1.37c0,0.13 0.457,0.228 1.37,0.293c0.914,0.066 1.696,0.098 2.349,0.098c0.652,0.131 1.207,0.229 1.663,0.294c0.457,0.065 0.946,0.098 1.468,0.098c1.435,-0 3.197,0.065 5.284,0.195c2.088,0.131 3.849,0.457 5.284,0.979c1.044,-0.261 1.892,-0.228 2.545,0.098c0.652,0.326 1.37,0.619 2.152,0.88c0.131,0.522 0.163,0.946 0.098,1.273c-0.065,0.326 -0.032,0.75 0.098,1.272l0.196,1.957Zm-28.378,46.97c-0.261,-0.392 -0.424,-0.946 -0.489,-1.664c-0.065,-0.717 -0.098,-1.402 -0.098,-2.055c-0.261,-0.391 -0.554,-0.685 -0.881,-0.881c-0.326,-0.195 -0.619,-0.424 -0.88,-0.684c-0,-1.044 -0.163,-1.892 -0.49,-2.545c-0.326,-0.652 -0.554,-1.304 -0.685,-1.957c0.261,-1.044 0.229,-1.794 -0.097,-2.25c-0.327,-0.457 -0.555,-0.946 -0.685,-1.468c-0.261,-0.653 -0.392,-1.338 -0.392,-2.055c0,-0.718 -0.065,-1.468 -0.196,-2.251c-0.652,-0.391 -1.043,-0.783 -1.174,-1.174c-0.13,-0.391 -0.326,-0.718 -0.587,-0.979l-3.914,-3.914c-1.174,-1.174 -2.414,-2.022 -3.719,-2.544c-1.043,-0.652 -2.022,-1.207 -2.935,-1.663l-2.544,-1.273c-0.783,-0.391 -1.566,-0.587 -2.349,-0.587c-0.783,0 -1.696,-0.13 -2.74,-0.391c-0.652,-0.261 -1.174,-0.489 -1.565,-0.685c-0.392,-0.196 -0.783,-0.359 -1.175,-0.489c-0.261,-0 -0.652,0.032 -1.174,0.098c-0.522,0.065 -1.044,0.032 -1.566,-0.098c-0.391,-0 -0.815,-0.098 -1.272,-0.294c-0.456,-0.196 -0.815,-0.293 -1.076,-0.293c-1.305,0.26 -2.283,0.228 -2.936,-0.098c-0.652,-0.327 -1.109,-0.359 -1.37,-0.098c-1.304,0.13 -2.185,0.391 -2.642,0.783c-0.456,0.391 -1.141,0.848 -2.055,1.37c-1.174,0.521 -1.924,0.88 -2.25,1.076c-0.326,0.196 -0.62,0.359 -0.881,0.489c-1.305,0.653 -2.218,1.175 -2.74,1.566c-0.522,0.391 -0.978,0.718 -1.37,0.978c-0.913,0.392 -1.435,0.685 -1.565,0.881c-0.131,0.196 -0.327,0.294 -0.588,0.294c-0.261,0.391 -0.522,0.717 -0.782,0.978c-0.261,0.261 -0.522,0.587 -0.783,0.979c-0.783,0.652 -1.435,1.207 -1.957,1.663c-0.522,0.457 -0.914,0.816 -1.175,1.077c-0.782,0.783 -1.696,1.37 -2.74,1.761c-0.13,1.435 -0.587,2.512 -1.369,3.229c-0.783,0.718 -1.175,1.794 -1.175,3.229c-0.522,0.653 -0.913,1.273 -1.174,1.86c-0.261,0.587 -0.522,1.207 -0.783,1.859c-0.261,0.783 -0.424,1.598 -0.489,2.446c-0.065,0.848 -0.228,1.794 -0.489,2.838c-0.261,0.783 -0.522,1.435 -0.783,1.957c-0.261,0.522 -0.457,1.109 -0.587,1.761c0.261,1.827 0.228,3.164 -0.098,4.012c-0.326,0.849 -0.555,1.794 -0.685,2.838c-0,0.522 0.098,1.044 0.293,1.566c0.196,0.522 0.294,1.109 0.294,1.761c-0,1.044 -0.065,1.794 -0.196,2.251c-0.13,0.457 -0.195,0.815 -0.195,1.076c0.13,0.914 0.424,1.762 0.88,2.545c0.457,0.782 0.555,1.696 0.294,2.739c0.913,0.653 1.761,1.305 2.544,1.957c0.783,0.653 1.696,1.24 2.74,1.762c0.913,1.566 2.022,2.87 3.327,3.914c1.305,1.044 2.544,2.088 3.718,3.131c1.175,1.305 2.479,2.218 3.915,2.74c1.174,0.653 2.12,1.077 2.837,1.272c0.718,0.196 1.403,0.359 2.055,0.49l1.468,0.489c0.587,0.196 1.011,0.359 1.272,0.489c2.218,0.261 4.241,0.62 6.067,1.077c1.827,0.456 3.458,0.685 4.893,0.685c0.391,0.13 0.848,0.163 1.37,0.097c0.522,-0.065 0.978,-0.163 1.37,-0.293l1.663,-0c0.587,-0 1.077,-0.065 1.468,-0.196c1.044,-0.522 1.696,-0.783 1.957,-0.783c0.261,0 0.522,-0.065 0.783,-0.195c0.391,-0.131 0.848,-0.327 1.37,-0.588c0.522,-0.26 1.044,-0.13 1.566,0.392c0.391,-0.783 0.946,-1.435 1.663,-1.957c0.718,-0.522 1.403,-1.011 2.055,-1.468c0.652,-0.457 1.272,-1.011 1.859,-1.664c0.587,-0.652 0.946,-1.5 1.077,-2.544c0.652,-1.043 1.239,-1.794 1.761,-2.25c0.522,-0.457 0.979,-0.946 1.37,-1.468c0.261,-0.392 0.489,-0.881 0.685,-1.468c0.196,-0.587 0.424,-1.011 0.685,-1.272c0.652,-1.044 1.142,-1.925 1.468,-2.642c0.326,-0.718 0.815,-1.403 1.468,-2.055c-0.261,-0.652 -0.229,-1.272 0.097,-1.859c0.327,-0.587 0.62,-1.142 0.881,-1.664c0.652,-1.826 1.109,-3.555 1.37,-5.186c0.261,-1.631 0.391,-3.555 0.391,-5.773c0.653,-0.914 1.175,-1.827 1.566,-2.74Zm133.277,-65.171c0.261,1.044 0.033,1.957 -0.685,2.74c-0.717,0.783 -1.207,1.826 -1.468,3.131c-0.26,0.261 -0.587,0.489 -0.978,0.685c-0.391,0.196 -0.718,0.555 -0.979,1.076c-0.521,1.044 -1.109,1.631 -1.761,1.762c-0.391,1.044 -0.881,1.892 -1.468,2.544c-0.587,0.652 -1.141,1.435 -1.663,2.349c-0,0.652 -0.229,1.011 -0.685,1.076c-0.457,0.065 -0.816,0.228 -1.077,0.489c-0.391,2.479 -1.565,4.371 -3.522,5.676c-1.436,-0.131 -2.871,-0.457 -4.306,-0.979c-0.391,-0.391 -0.554,-0.913 -0.489,-1.565c0.065,-0.653 -0.033,-1.24 -0.294,-1.762c-0.261,-0.522 -0.522,-0.978 -0.783,-1.37c-0.261,-0.391 -0.522,-0.848 -0.782,-1.37c-0.261,-0.391 -0.588,-0.783 -0.979,-1.174l-0.979,-0.979c-0.391,-0.782 -0.782,-1.272 -1.174,-1.467c-0.391,-0.196 -0.652,-0.359 -0.783,-0.49l-1.565,-2.348c-0.261,-0.261 -0.555,-0.587 -0.881,-0.979c-0.326,-0.391 -0.62,-0.717 -0.881,-0.978c-0.652,-0.392 -1.109,-0.62 -1.37,-0.685c-0.261,-0.065 -0.456,-0.228 -0.587,-0.489c-1.826,-0.783 -3.457,-1.175 -4.892,-1.175c-1.436,0 -2.675,-0.065 -3.719,-0.195c-0.391,-0 -0.783,-0.066 -1.174,-0.196c-0.392,-0.131 -0.848,-0.196 -1.37,-0.196c-0.261,0 -0.587,0.065 -0.979,0.196l-1.174,0.391c-0.391,0.131 -0.783,0.163 -1.174,0.098c-0.392,-0.065 -0.718,-0.032 -0.979,0.098c-0.522,0.261 -0.978,0.62 -1.37,1.076c-0.391,0.457 -0.913,0.685 -1.565,0.685c-0.653,1.305 -1.338,2.251 -2.055,2.838c-0.718,0.587 -1.207,1.207 -1.468,1.859c-0.131,0.392 -0.326,1.24 -0.587,2.545c-0.261,1.043 -0.587,2.283 -0.979,3.718c-0.391,1.435 -0.522,2.74 -0.391,3.914c-0,1.566 0.261,2.903 0.783,4.012c0.522,1.109 0.913,2.316 1.174,3.621c0.522,0.261 0.881,0.587 1.076,0.978l0.685,1.37c0.392,0.392 0.751,0.783 1.077,1.175c0.326,0.391 0.815,0.652 1.468,0.782c-0,0.653 0.13,1.109 0.391,1.37c0.261,0.261 0.391,0.653 0.391,1.175c1.305,0.782 2.479,1.761 3.523,2.935c0.522,0.914 1.011,1.468 1.468,1.664c0.457,0.195 0.554,0.554 0.293,1.076c0.914,0.261 1.566,0.587 1.958,0.979l0.978,0.978c1.435,0.783 2.479,1.598 3.131,2.447c0.653,0.848 1.501,1.533 2.545,2.054c0.13,0.653 0.391,1.175 0.782,1.566c0.392,0.392 0.653,0.913 0.783,1.566c0.653,-0.131 1.109,-0 1.37,0.391c0.261,0.392 0.783,0.522 1.566,0.392c0.261,0.652 0.62,1.109 1.076,1.37c0.457,0.261 0.946,0.521 1.468,0.782c1.435,1.175 2.61,2.088 3.523,2.74c0.913,0.653 1.761,1.37 2.544,2.153c0.261,0.392 0.522,0.685 0.783,0.881c0.261,0.196 0.522,0.424 0.783,0.685c1.826,1.696 3.262,3.164 4.305,4.403c1.044,1.24 2.088,2.316 3.132,3.229c0.522,1.957 1.435,3.784 2.74,5.48c0.13,1.305 0.717,2.479 1.761,3.523c-0.131,1.305 -0,2.381 0.391,3.229c0.392,0.848 0.783,1.664 1.175,2.447c0.261,0.652 0.489,1.435 0.685,2.348c0.195,0.913 0.228,1.696 0.097,2.348c0.131,0.653 0.131,1.142 0,1.468c-0.13,0.326 -0.13,0.685 0,1.077c0,0.652 0.098,1.304 0.294,1.957c0.196,0.652 0.359,1.37 0.489,2.153c-0.261,1.304 -0.326,2.185 -0.195,2.642c0.13,0.456 0.195,0.88 0.195,1.272c-0.13,0.783 -0.326,1.565 -0.587,2.348c-0.261,0.783 -0.261,1.566 0,2.349c-0.783,0.783 -0.978,1.631 -0.587,2.544c-0.13,0.652 -0.326,1.109 -0.587,1.37c-0.261,0.261 -0.522,0.587 -0.783,0.978c0.13,1.175 0,2.218 -0.391,3.132c-0.261,0.652 -0.62,1.304 -1.077,1.957c-0.456,0.652 -1.011,1.044 -1.663,1.174c0.13,0.913 0.032,1.468 -0.294,1.664c-0.326,0.195 -0.554,0.424 -0.685,0.685c-0.391,1.043 -1.011,1.924 -1.859,2.642c-0.848,0.717 -1.533,1.402 -2.055,2.055c-0.522,0.652 -1.109,1.304 -1.761,1.957l-1.957,1.957c-0.392,0.391 -0.816,0.848 -1.273,1.37c-0.456,0.522 -0.815,0.913 -1.076,1.174c-0.261,0.261 -0.685,0.457 -1.272,0.587c-0.587,0.131 -1.207,0.326 -1.859,0.587c-1.435,0.653 -2.577,1.109 -3.425,1.37c-0.848,0.261 -1.794,0.457 -2.838,0.587c-1.305,0.131 -2.12,0.294 -2.446,0.49c-0.326,0.195 -0.62,0.293 -0.881,0.293c-0.652,0 -1.207,-0.098 -1.663,-0.293c-0.457,-0.196 -0.946,-0.359 -1.468,-0.49c-1.044,0.522 -2.088,0.718 -3.132,0.587c-1.043,-0.13 -2.283,-0.326 -3.718,-0.587c-0.652,-0.13 -1.533,-0.228 -2.642,-0.293c-1.109,-0.066 -1.99,-0.294 -2.642,-0.685c-0.783,0.261 -1.631,0.587 -2.544,0.978c-1.305,-0.391 -2.61,-0.652 -3.915,-0.783c-1.304,-0.13 -2.674,-0.391 -4.109,-0.782c-0.522,-0.131 -1.044,-0.327 -1.566,-0.588l-1.566,-0.782c-0.652,-0.261 -1.304,-0.359 -1.957,-0.294c-0.652,0.065 -1.239,-0.033 -1.761,-0.293c-0.392,-0.261 -0.783,-0.555 -1.174,-0.881c-0.392,-0.326 -0.783,-0.62 -1.175,-0.881c-0.913,-0.652 -1.663,-1.109 -2.25,-1.37c-0.587,-0.261 -1.011,-0.717 -1.272,-1.37c-1.305,0.261 -2.218,0 -2.74,-0.783c-0.522,-0.782 -1.305,-1.174 -2.349,-1.174c-0.261,-0.261 -0.359,-0.62 -0.293,-1.076c0.065,-0.457 -0.033,-0.816 -0.294,-1.077c-0.652,-0.261 -1.076,-0.261 -1.272,0c-0.196,0.261 -0.555,0.327 -1.076,0.196c-0.261,-0.522 -0.49,-0.913 -0.685,-1.174c-0.196,-0.261 -0.424,-0.653 -0.685,-1.174c-0.261,-0.261 -0.718,-0.522 -1.37,-0.783c-0.653,-0.261 -1.24,-0.718 -1.762,-1.37c-0.391,-0.653 -0.717,-1.077 -0.978,-1.272c-0.261,-0.196 -0.457,-0.359 -0.587,-0.49c-0.783,-1.174 -1.403,-2.315 -1.86,-3.424c-0.456,-1.109 -1.011,-1.99 -1.663,-2.643l-0,-2.544c-0.783,-1.435 -1.664,-2.805 -2.642,-4.11c-0.979,-1.304 -1.468,-3.066 -1.468,-5.284c0.391,-0.261 0.685,-0.554 0.881,-0.88c0.195,-0.327 0.424,-0.62 0.685,-0.881c0.391,-0.261 0.815,-0.424 1.272,-0.489c0.456,-0.066 0.88,-0.229 1.272,-0.49c0.652,-0.391 1.37,-0.717 2.153,-0.978c0.782,-0.261 1.304,-0.848 1.565,-1.762c0.653,0 1.24,-0.13 1.762,-0.391c0.522,-0.261 1.109,-0.522 1.761,-0.783c0.913,-0.652 1.5,-1.011 1.761,-1.076c0.261,-0.065 0.522,-0.163 0.783,-0.294c0.392,-0.391 0.75,-0.783 1.077,-1.174c0.326,-0.391 0.685,-0.718 1.076,-0.979c0.783,0.261 1.272,0.294 1.468,0.098c0.196,-0.195 0.815,-0.032 1.859,0.49c1.435,0.913 2.479,2.674 3.131,5.284c0.261,1.304 0.62,2.283 1.077,2.935c0.456,0.653 0.88,1.305 1.272,1.957c0.522,0.783 1.37,1.762 2.544,2.936c1.174,1.174 2.283,2.088 3.327,2.74c0.652,0.391 1.37,0.913 2.153,1.566c0.783,0.652 1.37,1.109 1.761,1.37c0.392,0.13 0.881,0.195 1.468,0.195c0.587,0 1.207,0.065 1.859,0.196c0.522,0.13 0.979,0.261 1.37,0.391c0.392,0.131 0.783,0.196 1.175,0.196c2.218,0.261 4.044,0.359 5.479,0.294c1.436,-0.066 3.066,-0.359 4.893,-0.881c1.044,-0.261 2.055,-0.555 3.034,-0.881c0.978,-0.326 1.859,-0.75 2.642,-1.272c1.043,-0.783 1.859,-1.5 2.446,-2.153c0.587,-0.652 1.207,-1.631 1.859,-2.935c0.261,-0.914 0.489,-1.468 0.685,-1.664c0.196,-0.195 0.294,-0.424 0.294,-0.685c0.13,-0.391 0.195,-0.848 0.195,-1.37c0,-0.522 0.066,-1.109 0.196,-1.761c0.131,-0.522 0.261,-1.076 0.392,-1.664c0.13,-0.587 0.26,-1.011 0.391,-1.272c-0,-1.043 -0.131,-1.989 -0.391,-2.837c-0.261,-0.849 -0.457,-1.794 -0.588,-2.838c-0.521,-0.653 -1.109,-1.305 -1.761,-1.957c-0.652,-0.653 -1.109,-1.501 -1.37,-2.544c-1.044,-0.914 -2.12,-1.827 -3.229,-2.74c-1.109,-0.914 -1.794,-2.284 -2.055,-4.11c-0.391,-0.261 -0.848,-0.424 -1.37,-0.49c-0.522,-0.065 -0.979,-0.228 -1.37,-0.489c0,-1.305 -0.359,-2.348 -1.076,-3.131c-0.718,-0.783 -1.468,-1.566 -2.251,-2.349c-0.261,-0.522 -0.489,-0.88 -0.685,-1.076c-0.196,-0.196 -0.489,-0.424 -0.881,-0.685c-0.522,-0.913 -1.043,-1.435 -1.565,-1.566c-0.783,-0.652 -1.631,-1.304 -2.545,-1.957c-1.565,-1.174 -3.098,-2.642 -4.599,-4.403c-1.5,-1.762 -3.164,-3.295 -4.99,-4.599c-0.131,-1.044 -0.457,-1.892 -0.979,-2.545c-0.522,-0.652 -1.109,-1.239 -1.761,-1.761c-0.652,-2.87 -1.892,-5.219 -3.719,-7.045c0.131,-0.653 0.066,-1.175 -0.195,-1.566c-0.261,-0.391 -0.522,-0.913 -0.783,-1.566c-0.392,-0.913 -0.718,-1.533 -0.979,-1.859c-0.261,-0.326 -0.456,-0.554 -0.587,-0.685c-0.261,-1.044 -0.424,-2.12 -0.489,-3.229c-0.065,-1.109 -0.359,-2.185 -0.881,-3.229c0.131,-0.522 0.294,-0.979 0.49,-1.37c0.195,-0.392 0.293,-0.914 0.293,-1.566c-0.391,-1.435 -0.587,-2.414 -0.587,-2.935c-0,-0.522 -0.196,-0.783 -0.587,-0.783c0.261,-0.914 0.196,-1.794 -0.196,-2.642c-0.391,-0.848 -0.652,-1.729 -0.783,-2.642c0,-0.914 0.066,-1.86 0.196,-2.838c0.131,-0.979 0.261,-1.794 0.391,-2.447c-0.13,-1.043 0,-2.087 0.392,-3.131c0.391,-1.044 0.717,-1.826 0.978,-2.348c0.392,-1.305 0.914,-2.479 1.566,-3.523c0.652,-1.044 1.272,-2.088 1.859,-3.131c0.587,-1.044 0.946,-2.023 1.077,-2.936c0.913,-0.522 1.5,-1.109 1.761,-1.761c0.261,-0.653 0.718,-1.305 1.37,-1.958c1.566,-1.304 2.544,-2.087 2.936,-2.348c0.782,-0.652 1.598,-1.239 2.446,-1.761c0.848,-0.522 1.598,-0.979 2.251,-1.37c1.304,-0.392 2.087,-0.718 2.348,-0.979c0.261,-0.261 0.522,-0.391 0.783,-0.391c1.044,-0.131 1.696,-0.261 1.957,-0.392c0.261,-0.13 0.457,-0.195 0.587,-0.195c0.913,-0.261 1.827,-0.392 2.74,-0.392c0.913,0 1.892,-0.065 2.936,-0.196c0.652,0 1.37,-0.032 2.152,-0.097c0.783,-0.066 1.697,0.032 2.74,0.293c0.522,0.131 0.979,0.294 1.37,0.489c0.392,0.196 0.848,0.359 1.37,0.49c1.957,0.261 4.045,0.261 6.263,-0c0.391,0.261 0.815,0.554 1.272,0.88c0.457,0.327 0.881,0.62 1.272,0.881c1.957,0.261 3.458,0.913 4.501,1.957c2.088,0.392 3.654,0.946 4.697,1.664c1.044,0.717 2.023,1.402 2.936,2.055c0.391,0.13 0.718,0.261 0.979,0.391c0.261,0.13 0.652,0.13 1.174,0c0.391,0.783 0.881,1.403 1.468,1.859c0.587,0.457 1.141,0.946 1.663,1.468c1.566,0.652 2.838,1.109 3.816,1.37c0.979,0.261 1.86,0.652 2.643,1.174c0.391,0.261 0.782,0.424 1.174,0.49c0.391,0.065 0.717,0.228 0.978,0.489c0.653,0.391 1.109,1.044 1.37,1.957Z" style="fill:#a00500;"/><path d="M253.33,574.764c-4.905,-0 -8.614,-1.395 -11.128,-4.185c-2.514,-2.79 -3.771,-6.79 -3.771,-12.002l0,-3.678l9.565,-0l-0,4.414c-0,4.169 1.747,6.254 5.242,6.254c1.717,-0 3.019,-0.506 3.908,-1.518c0.889,-1.011 1.334,-2.651 1.334,-4.92c-0,-2.697 -0.613,-5.073 -1.839,-7.127c-1.227,-2.054 -3.495,-4.522 -6.806,-7.404c-4.169,-3.678 -7.081,-7.004 -8.737,-9.978c-1.655,-2.974 -2.483,-6.33 -2.483,-10.07c0,-5.089 1.288,-9.028 3.863,-11.818c2.575,-2.79 6.315,-4.185 11.22,-4.185c4.843,0 8.507,1.395 10.99,4.185c2.483,2.79 3.724,6.79 3.724,12.002l0,2.667l-9.564,-0l-0,-3.311c-0,-2.207 -0.429,-3.817 -1.288,-4.828c-0.858,-1.012 -2.115,-1.518 -3.77,-1.518c-3.372,0 -5.059,2.054 -5.059,6.162c0,2.33 0.629,4.506 1.886,6.53c1.257,2.023 3.541,4.475 6.851,7.357c4.231,3.679 7.143,7.02 8.737,10.024c1.594,3.005 2.391,6.53 2.391,10.576c0,5.273 -1.303,9.32 -3.908,12.14c-2.606,2.82 -6.392,4.231 -11.358,4.231Zm35.775,-0c-4.905,-0 -8.645,-1.395 -11.22,-4.185c-2.575,-2.79 -3.863,-6.79 -3.863,-12.002l0,-49.11l10.117,0l-0,49.846c-0,2.207 0.444,3.801 1.333,4.782c0.889,0.981 2.162,1.472 3.817,1.472c1.655,-0 2.928,-0.491 3.817,-1.472c0.889,-0.981 1.333,-2.575 1.333,-4.782l0,-49.846l9.749,0l-0,49.11c-0,5.212 -1.288,9.212 -3.863,12.002c-2.575,2.79 -6.315,4.185 -11.22,4.185Zm29.889,-65.297l13.703,0l10.485,64.377l-10.117,-0l-1.839,-12.783l-0,0.183l-11.496,0l-1.839,12.6l-9.381,-0l10.484,-64.377Zm11.036,43.041l-4.506,-31.821l-0.184,0l-4.414,31.821l9.104,-0Zm32.741,-43.041l26.762,0l-0,9.197l-16.646,-0l-0,17.933l13.059,0l0,9.197l-13.059,-0l-0,28.05l-10.116,-0l-0,-64.377Zm36.51,0l13.703,0l10.485,64.377l-10.117,-0l-1.839,-12.783l0,0.183l-11.496,0l-1.839,12.6l-9.381,-0l10.484,-64.377Zm11.036,43.041l-4.506,-31.821l-0.184,0l-4.414,31.821l9.104,-0Zm12.784,-43.041l10.208,0l6.622,49.938l0.184,0l6.621,-49.938l9.289,0l-9.748,64.377l-13.428,-0l-9.748,-64.377Zm52.237,65.297c-4.966,-0 -8.767,-1.411 -11.404,-4.231c-2.636,-2.82 -3.954,-6.805 -3.954,-11.956l-0,-33.843c-0,-5.151 1.318,-9.136 3.954,-11.956c2.637,-2.82 6.438,-4.231 11.404,-4.231c4.966,0 8.768,1.411 11.404,4.231c2.636,2.82 3.955,6.805 3.955,11.956l-0,33.843c-0,5.151 -1.319,9.136 -3.955,11.956c-2.636,2.82 -6.438,4.231 -11.404,4.231Zm0,-9.197c3.495,-0 5.242,-2.115 5.242,-6.346l0,-35.131c0,-4.231 -1.747,-6.346 -5.242,-6.346c-3.495,0 -5.242,2.115 -5.242,6.346l-0,35.131c-0,4.231 1.747,6.346 5.242,6.346Zm22.164,-56.1l14.991,0c5.211,0 9.012,1.211 11.404,3.633c2.391,2.422 3.586,6.146 3.586,11.174l0,3.954c0,6.683 -2.207,10.914 -6.621,12.692l-0,0.184c2.452,0.735 4.184,2.238 5.196,4.506c1.011,2.269 1.517,5.303 1.517,9.105l0,11.312c0,1.839 0.062,3.326 0.184,4.46c0.123,1.134 0.429,2.253 0.92,3.357l-10.3,-0c-0.368,-1.042 -0.613,-2.023 -0.736,-2.943c-0.123,-0.92 -0.184,-2.575 -0.184,-4.966l-0,-11.772c-0,-2.943 -0.475,-4.997 -1.426,-6.162c-0.95,-1.165 -2.59,-1.747 -4.92,-1.747l-3.495,-0l0,27.59l-10.116,-0l0,-64.377Zm13.795,27.59c2.023,0 3.541,-0.521 4.553,-1.563c1.011,-1.043 1.517,-2.79 1.517,-5.242l-0,-4.967c-0,-2.329 -0.414,-4.016 -1.242,-5.058c-0.827,-1.042 -2.13,-1.563 -3.908,-1.563l-4.599,-0l0,18.393l3.679,0Zm23.268,-27.59l10.116,0l0,64.377l-10.116,-0l-0,-64.377Zm25.567,9.197l-10.577,-0l0,-9.197l31.269,0l0,9.197l-10.576,-0l-0,55.18l-10.116,-0l-0,-55.18Zm29.153,-9.197l13.703,0l10.484,64.377l-10.116,-0l-1.839,-12.783l-0,0.183l-11.496,0l-1.839,12.6l-9.381,-0l10.484,-64.377Zm11.036,43.041l-4.506,-31.821l-0.184,0l-4.415,31.821l9.105,-0Zm39.027,-19.857c4.39,0 7.954,3.564 7.954,7.954c-0,4.39 -3.564,7.953 -7.954,7.953c-4.389,0 -7.953,-3.563 -7.953,-7.953c-0,-4.39 3.564,-7.954 7.953,-7.954Zm-431.939,1.051c4.39,-0 7.954,3.564 7.954,7.953c-0,4.39 -3.564,7.954 -7.954,7.954c-4.389,0 -7.953,-3.564 -7.953,-7.954c-0,-4.389 3.564,-7.953 7.953,-7.953Z" style="fill:#a00500;"/></g></svg>